<?xml version="1.0" standalone="no"?>
<!DOCTYPE svg PUBLIC "-//W3C//DTD SVG 1.1//EN" "http://www.w3.org/Graphics/SVG/1.1/DTD/svg11.dtd">
<svg xmlns="http://www.w3.org/2000/svg">
<metadata>Copyright (C) 2023 by original authors @ fontello.com</metadata>
<defs>
<font id="my_fonts" horiz-adv-x="1000" >
<font-face font-family="my_fonts" font-weight="400" font-stretch="normal" units-per-em="1000" ascent="850" descent="-150" />
<missing-glyph horiz-adv-x="1000" />
<glyph glyph-name="arrow-right-solid" unicode="&#xe800;" d="M857 306c24 24 24 64 0 88l-313 313c-24 24-64 24-88 0s-25-64 0-89l206-205-599 0c-35 0-63-28-63-63s28-62 63-62l599 0-206-206c-25-25-25-64 0-89s64-24 88 0l313 313z" horiz-adv-x="875" />

<glyph glyph-name="heart-regular" unicode="&#xe801;" d="M441-65l-5 5-342 318c-60 56-94 134-94 215v7c0 137 98 255 233 281 77 15 156-3 218-47 18-12 34-27 49-43 8 9 17 18 26 26 8 6 15 12 23 17 0 0 0 0 0 0 63 44 141 62 218 47 135-25 233-144 233-281v-7c0-81-34-159-94-215l-342-318-5-5c-16-14-37-23-59-23s-43 8-59 23z m26 632c-1 0-1 1-2 2l-35 39c0 0 0 0 0 0 0 0 0 0 0 0-45 51-113 74-180 61-91-17-156-96-156-189v-7c0-55 23-108 64-146l342-318 342 318c41 38 64 91 64 146v7c0 92-65 172-156 189-67 13-135-10-180-61 0 0 0 0 0 0s0 0 0 0l-35-39c-1-1-1-2-2-2-9-9-21-14-33-14s-24 5-33 14z" horiz-adv-x="1000" />

<glyph glyph-name="heart-solid" unicode="&#xe802;" d="M93 263l353-329c15-14 34-22 54-22s40 8 54 22l353 329c59 56 93 133 93 214v12c0 136-99 252-233 275-89 15-180-14-244-78l-23-23-23 23c-64 64-155 93-244 78-134-23-233-139-233-275v-12c0-81 34-158 93-214z" horiz-adv-x="1000" />

<glyph glyph-name="wand-magic-sparkles-solid" unicode="&#xe803;" d="M458 767l-73-28c-6-2-10-8-10-14s4-12 10-14l73-28 28-73c2-6 8-10 14-10s12 4 14 10l28 73 73 28c6 2 10 8 10 14s-4 12-10 14l-73 28-28 73c-2 6-8 10-14 10s-12-4-14-10l-28-73z m-368-689c-36-37-36-96 0-133l68-68c36-36 96-36 132 0l745 746c37 36 37 95 0 132l-68 68c-36 36-95 36-132 0l-745-745z m857 611l-206-205-45 45 205 205 46-45z m-932-68c-9-3-15-12-15-21s6-18 15-21l110-41 41-111c4-9 12-14 22-14s17 5 21 14l41 111 110 41c9 3 15 12 15 21s-6 18-15 21l-110 42-41 110c-4 9-12 15-21 15s-18-6-22-15l-41-110-110-42z m687-500c-9-3-14-12-14-21s5-18 14-21l111-41 41-111c3-9 12-15 21-15s18 6 21 15l42 111 110 41c9 3 15 12 15 21s-6 18-15 21l-110 42-42 110c-3 9-12 15-21 15s-18-6-21-15l-41-110-111-42z" horiz-adv-x="1125" />

<glyph glyph-name="music-solid" unicode="&#xe804;" d="M975 838c16-12 25-31 25-50v-141-516c0-86-84-156-187-156s-188 70-188 156 84 157 188 157c21 0 43-4 62-9v284l-500-150v-407c0-86-84-156-187-156s-188 70-188 156 84 157 188 157c21 0 43-4 62-9v305 141c0 28 18 52 45 60l625 188c19 5 39 2 55-10z" horiz-adv-x="1000" />

<glyph glyph-name="location-dot-solid" unicode="&#xe806;" d="M421-125c101 125 329 429 329 600 0 207-168 375-375 375s-375-168-375-375c0-171 229-475 329-600 24-30 68-30 92 0z m-46 725a125 125 0 1 0 0-250 125 125 0 1 0 0 250z" horiz-adv-x="750" />

<glyph glyph-name="star-regular" unicode="&#xe807;" d="M562 850c18 0 35-10 43-26l134-276 299-44c17-3 32-15 37-32s1-36-11-48l-217-215 51-304c3-18-4-36-19-46s-33-12-49-4l-268 143-267-142c-16-9-35-8-49 3s-22 28-19 46l51 304-217 215c-13 12-17 31-12 48s20 29 38 32l299 44 134 276c8 16 24 26 42 26z m0-154l-102-212c-7-13-20-23-36-26l-231-34 168-166c11-10 16-26 13-41l-39-234 205 110c14 8 31 8 44 0l206-110-40 234c-2 15 3 30 14 41l167 166-231 34c-15 3-28 12-35 26l-103 212z" horiz-adv-x="1125" />

<glyph glyph-name="star-solid" unicode="&#xe808;" d="M619 815c-10 21-32 35-56 35s-46-14-57-35l-125-259-281-41c-23-3-43-20-50-42s-1-48 16-64l203-202-48-284c-4-24 6-47 25-61s45-16 66-5l251 134 251-134c21-11 46-9 66 5s29 37 25 61l-49 284 204 202c17 16 23 41 15 64s-26 39-50 42l-280 41-126 259z" horiz-adv-x="1125" />

<glyph glyph-name="envelope-regular" unicode="&#xe809;" d="M125 631c-17 0-31-14-31-31v-43l337-277c40-33 98-33 139 0l336 277v43c0 17-14 31-31 31h-750z m-31-195v-336c0-17 14-31 31-31h750c17 0 31 14 31 31v336l-277-228c-75-62-183-62-258 0l-277 228z m-94 164c0 69 56 125 125 125h750c69 0 125-56 125-125v-500c0-69-56-125-125-125h-750c-69 0-125 56-125 125v500z" horiz-adv-x="1000" />

<glyph glyph-name="bars-solid" unicode="&#xe80a;" d="M0 663c0 34 28 62 63 62h750c34 0 62-28 62-62s-28-63-62-63h-750c-35 0-63 28-63 63z m0-313c0 35 28 63 63 63h750c34 0 62-28 62-63s-28-62-62-62h-750c-35 0-63 27-63 62z m875-312c0-35-28-63-62-63h-750c-35 0-63 28-63 63s28 62 63 62h750c34 0 62-28 62-62z" horiz-adv-x="875" />

<glyph glyph-name="envelope-solid" unicode="&#xe80b;" d="M94 725c-52 0-94-42-94-94 0-29 14-57 38-75l425-318c22-17 52-17 75 0l425 318c23 18 37 46 37 75 0 52-42 94-94 94h-812z m-94-219v-406c0-69 56-125 125-125h750c69 0 125 56 125 125v406l-425-318c-44-34-105-34-150 0l-425 318z" horiz-adv-x="1000" />

<glyph glyph-name="phone-solid" unicode="&#xe80c;" d="M322 802c-15 36-55 56-92 45l-172-47c-34-9-58-40-58-75 0-483 392-875 875-875 35 0 66 24 75 58l47 172c11 37-9 77-45 92l-187 78c-32 14-69 4-91-22l-79-97c-137 65-249 177-314 314l97 79c26 22 36 58 22 90l-78 188z" horiz-adv-x="1000" />

<glyph glyph-name="image-regular" unicode="&#xe80d;" d="M875 694c17 0 31-14 31-31v-625l-9 13-266 343c-9 12-23 19-37 19s-28-7-37-19l-162-209-60 83c-9 12-23 20-38 20s-29-8-38-20l-156-219-9-12 0 1v625c0 17 14 31 31 31h750z m-750 94c-69 0-125-57-125-125v-625c0-69 56-126 125-126h750c69 0 125 57 125 126v625c0 68-56 125-125 125h-750z m156-375a94 94 0 1 1 0 187 94 94 0 1 1 0-187z" horiz-adv-x="1000" />

<glyph glyph-name="image-solid" unicode="&#xe80e;" d="M0 663c0 68 56 125 125 125h750c69 0 125-57 125-125v-625c0-69-56-126-125-126h-750c-69 0-125 57-125 126v625z m632-208c-8 12-23 20-38 20s-30-8-39-20l-170-250-52 65c-9 11-22 18-36 18s-28-7-37-18l-125-156c-11-14-13-34-5-50s24-26 42-26h187 63 406c18 0 34 9 42 25s7 34-3 48l-235 344z m-413 20a94 94 0 1 1 0 188 94 94 0 1 1 0-188z" horiz-adv-x="1000" />

<glyph glyph-name="twitter" unicode="&#xe80f;" d="M897 554c1-9 1-18 1-27 0-271-206-583-583-583-116 0-224 33-315 92 17-2 32-3 50-3 95 0 184 33 254 88-90 2-166 61-192 142 13-2 26-3 39-3 18 0 37 2 54 7-94 19-164 101-164 201v3c27-16 59-25 92-26-55 36-91 99-91 170 0 38 10 73 28 104 101-125 252-206 422-215-3 15-5 31-5 47 0 113 92 205 205 205 59 0 113-25 150-65 46 9 91 26 130 50-15-48-47-88-90-113 41 4 81 16 118 32-28-41-63-77-103-106z" horiz-adv-x="1000" />

<glyph glyph-name="download-solid" unicode="&#xe810;" d="M563 788c0 34-28 62-63 62s-62-28-62-62v-474l-144 143c-24 24-64 24-88 0s-25-64 0-89l250-250c24-24 64-24 88 0l250 250c25 25 25 64 0 89s-64 24-88 0l-143-143v474z m-438-625c-69 0-125-57-125-125v-63c0-69 56-125 125-125h750c69 0 125 56 125 125v63c0 68-56 125-125 125h-198l-89-89c-48-49-128-49-176 0l-89 89h-198z m719-110a47 47 0 1 0 0-94 47 47 0 1 0 0 94z" horiz-adv-x="1000" />

<glyph glyph-name="check-solid" unicode="&#xe811;" d="M857 644c24-24 24-64 0-88l-500-500c-25-25-64-25-89 0l-250 250c-24 24-24 64 0 88s64 25 89 0l206-205 455 455c25 25 64 25 89 0z" horiz-adv-x="875" />

<glyph glyph-name="user-regular" unicode="&#xe812;" d="M594 600a156 156 0 1 1-313 0 156 156 0 1 1 313 0z m-406 0a250 250 0 1 0 500 0 250 250 0 1 0-500 0z m-92-656h683c-18 123-124 219-252 219h-179c-128 0-234-96-252-219z m-96-36c0 192 156 348 348 348h179c192 0 348-156 348-348 0-32-26-58-58-58h-759c-32 0-58 26-58 58z" horiz-adv-x="875" />

<glyph glyph-name="user-solid" unicode="&#xe813;" d="M438 350a250 250 0 1 1 0 500 250 250 0 1 1 0-500z m-90-94c-192 0-348-156-348-348 0-32 26-58 58-58h759c32 0 58 26 58 58 0 192-156 348-348 348h-179z" horiz-adv-x="875" />

<glyph glyph-name="magnifying-glass-solid" unicode="&#xe814;" d="M813 444c0-90-30-173-79-240l248-247c24-25 24-64 0-89s-64-24-89 0l-247 248c-67-50-150-78-240-78-224 0-406 181-406 406s182 406 406 406 407-182 407-406z m-407-281a281 281 0 1 1 0 562 281 281 0 1 1 0-562z" horiz-adv-x="1000" />

<glyph glyph-name="house-solid" unicode="&#xe815;" d="M1125 351c0-35-30-63-63-63h-62l1-313c0-5 0-10-1-15v-32c0-43-35-78-78-78h-31c-2 0-5 0-7 0-3 0-5 0-8 0h-63-47c-43 0-78 35-78 78v47 125c0 35-28 63-63 63h-125c-35 0-62-28-62-63v-125-47c0-43-35-78-79-78h-46-63c-3 0-6 0-9 0-2 0-4 0-7 0h-31c-43 0-78 35-78 78v219c0 2 0 4 0 5v136h-62c-36 0-63 28-63 63 0 18 6 33 20 47l500 436c14 14 30 16 43 16s30-4 41-14l499-438c16-14 24-29 22-47z" horiz-adv-x="1125" />

<glyph glyph-name="bell-slash-regular" unicode="&#xe816;" d="M76 840c-20 16-50 12-66-8s-12-50 8-66l1156-906c21-16 50-12 66 8s12 50-8 66l-172 135c5 15 2 32-8 45l-29 36c-55 69-85 156-85 244v65c0 148-109 271-250 294v35c0 34-28 62-63 62s-62-28-62-62v-35c-86-14-160-64-204-135l-283 222z m357-280c35 61 101 103 176 103h16 16c112 0 203-91 203-204v-65c0-64 12-126 36-184l-447 350z m360-522l-119 93h-345c41 64 67 138 75 213l-91 72v-22c0-89-31-175-86-244l-29-36c-11-14-14-34-6-50s24-26 42-26h559z m-43-63h-125-125c0-33 13-65 37-89s55-36 88-36 65 13 89 36 36 56 36 89z" horiz-adv-x="1250" />

<glyph glyph-name="calendar-check-regular" unicode="&#xe817;" d="M250 850c26 0 47-21 47-47v-78h281v78c0 26 21 47 47 47s47-21 47-47v-78h78c69 0 125-56 125-125v-31-94-500c0-69-56-125-125-125h-625c-69 0-125 56-125 125v500 94 31c0 69 56 125 125 125h78v78c0 26 21 47 47 47z m531-375h-687v-500c0-17 14-31 31-31h625c17 0 31 14 31 31v500z m-138-205l-219-219c-18-18-48-18-66 0l-125 125c-19 19-19 48 0 66s48 19 66 0l92-91 185 185c19 19 48 19 66 0s19-48 0-66z" horiz-adv-x="875" />

<glyph glyph-name="calendar-minus-regular" unicode="&#xe818;" d="M313 850c26 0 46-21 46-47v-78h282v78c0 26 21 47 47 47s46-21 46-47v-78h79c68 0 125-56 125-125v-31-94-500c0-69-57-125-125-125h-625c-69 0-125 56-125 125v500 94 31c0 69 56 125 125 125h78v78c0 26 21 47 47 47z m531-375h-688v-500c0-17 14-31 32-31h625c17 0 31 14 31 31v500z m-203-312h-282c-26 0-46 20-46 46s20 47 46 47h282c26 0 47-21 47-47s-21-46-47-46z" horiz-adv-x="1000" />

<glyph glyph-name="calendar-plus-regular" unicode="&#xe819;" d="M359 803c0 26-20 47-46 47s-47-21-47-47v-78h-78c-69 0-125-56-125-125v-31-94-500c0-69 56-125 125-125h625c68 0 125 56 125 125v500 94 31c0 69-57 125-125 125h-79v78c0 26-20 47-46 47s-47-21-47-47v-78h-282v78z m-203-328h688v-500c0-17-14-31-31-31h-625c-18 0-32 14-32 31v500z m344-78c-26 0-47-21-47-47v-94h-94c-26 0-46-21-46-47s20-46 46-46h94v-94c0-26 21-47 47-47s47 21 47 47v94h94c26 0 47 20 47 46s-21 47-47 47h-94v94c0 26-21 47-47 47z" horiz-adv-x="1000" />

<glyph glyph-name="calendar-xmark-regular" unicode="&#xe81a;" d="M313 850c26 0 46-21 46-47v-78h282v78c0 26 21 47 47 47s46-21 46-47v-78h79c68 0 125-56 125-125v-31-94-500c0-69-57-125-125-125h-625c-69 0-125 56-125 125v500 94 31c0 69 56 125 125 125h78v78c0 26 21 47 47 47z m531-375h-688v-500c0-17 14-31 32-31h625c17 0 31 14 31 31v500z m-186-174l-92-92 92-91c19-19 19-48 0-67s-48-18-66 0l-92 92-92-92c-18-18-48-18-66 0s-18 48 0 67l92 91-92 92c-18 19-18 48 0 66s48 19 66 0l92-91 92 91c18 19 48 19 66 0s19-48 0-66z" horiz-adv-x="1000" />

<glyph glyph-name="angle-down-solid" unicode="&#xe81b;" d="M393 181c25-25 64-25 89 0l312 312c25 25 25 64 0 89s-64 24-88 0l-268-268-269 268c-24 24-64 24-88 0s-25-64 0-89l312-312z" horiz-adv-x="875" />

<glyph glyph-name="angle-left-solid" unicode="&#xe81c;" d="M81 394c-25-24-25-64 0-88l312-313c25-24 64-24 89 0s24 64 0 89l-268 268 268 268c24 25 24 64 0 89s-64 24-89 0l-312-313z" horiz-adv-x="625" />

<glyph glyph-name="angle-right-solid" unicode="&#xe81d;" d="M544 394c25-24 25-64 0-88l-312-313c-25-24-64-24-89 0s-24 64 0 89l269 268-269 268c-24 25-24 64 0 89s64 24 89 0l312-313z" horiz-adv-x="625" />

<glyph glyph-name="angles-down-solid" unicode="&#xe81e;" d="M482-69c-25-25-64-25-89 0l-312 312c-25 25-25 64 0 89s64 24 88 0l269-268 268 268c24 24 64 24 88 0s25-64 0-89l-312-312z m312 687l-312-312c-25-25-64-25-89 0l-312 312c-25 25-25 64 0 89s64 24 88 0l269-268 268 268c24 24 64 24 88 0s25-64 0-89z" horiz-adv-x="875" />

<glyph glyph-name="angles-left-solid" unicode="&#xe81f;" d="M81 394c-25-24-25-64 0-88l312-313c25-24 64-24 89 0s24 64 0 89l-268 268 268 268c24 25 24 64 0 89s-64 24-89 0l-312-313z m687 313l-312-313c-25-24-25-64 0-88l312-313c25-24 64-24 89 0s24 64 0 89l-268 268 268 268c24 25 24 64 0 89s-64 24-89 0z" horiz-adv-x="1000" />

<glyph glyph-name="angles-right-solid" unicode="&#xe820;" d="M919 306c25 24 25 64 0 88l-312 313c-25 24-64 24-89 0s-24-64 0-89l269-268-269-268c-24-25-24-64 0-89s64-24 89 0l312 313z m-687-313l312 313c25 24 25 64 0 88l-312 313c-25 24-64 24-89 0s-24-64 0-89l269-268-269-268c-24-25-24-64 0-89s64-24 89 0z" horiz-adv-x="1000" />

<glyph glyph-name="angles-up-solid" unicode="&#xe821;" d="M482 769c-25 25-64 25-89 0l-312-312c-25-25-25-64 0-89s64-24 88 0l269 269 268-269c24-24 64-24 88 0s25 64 0 89l-312 312z m312-687l-312 312c-25 25-64 25-89 0l-312-312c-25-25-25-64 0-89s64-24 88 0l269 269 268-269c24-24 64-24 88 0s25 64 0 89z" horiz-adv-x="875" />

<glyph glyph-name="arrow-left-long-solid" unicode="&#xe822;" d="M18 394c-24-24-24-64 0-88l250-250c25-25 64-25 89 0s24 64 0 88l-143 144 724 0c34 0 62 27 62 62s-28 63-62 63l-724 0 143 143c24 24 24 64 0 88s-64 25-89 0l-250-250z" horiz-adv-x="1000" />

<glyph glyph-name="arrow-right-arrow-left-solid" unicode="&#xe823;" d="M857 556c24 24 24 64 0 88l-188 188c-24 24-64 24-88 0s-25-64 0-89l81-80-599 0c-35 0-63-28-63-63s28-62 63-62l599 0-81-81c-25-25-25-64 0-89s64-24 88 0l188 188z m-651-688c24-24 64-24 88 0s25 64 0 89l-80 81 599 0c34 0 62 27 62 62s-28 63-62 63l-599 0 80 80c25 25 25 64 0 89s-64 24-88 0l-188-188c-24-24-24-64 0-88l188-188z" horiz-adv-x="875" />

<glyph glyph-name="arrow-right-from-bracket-solid" unicode="&#xe824;" d="M982 306c24 24 24 64 0 88l-250 250c-25 25-64 25-89 0s-24-64 0-88l144-143-412 0c-35 0-62-28-62-63s27-62 62-62l412 0-144-144c-24-24-24-64 0-88s64-25 89 0l250 250z m-669 357c34 0 62 27 62 62s-28 63-62 63l-125 0c-104 0-188-84-188-188l0-500c0-104 84-188 188-188l125 0c34 0 62 28 62 63s-28 63-62 63l-125 0c-35 0-63 27-63 62l0 500c0 35 28 63 63 63l125 0z" horiz-adv-x="1000" />

<glyph glyph-name="arrow-right-long-solid" unicode="&#xe825;" d="M982 306c24 24 24 64 0 88l-250 250c-25 25-64 25-89 0s-24-64 0-88l144-143-724 0c-35 0-63-28-63-63s28-62 63-62l724 0-144-144c-24-24-24-64 0-88s64-25 89 0l250 250z" horiz-adv-x="1000" />

<glyph glyph-name="arrow-right-to-bracket-solid" unicode="&#xe826;" d="M688 663l125 0c34 0 62-28 62-63l0-500c0-35-28-62-62-62l-125 0c-35 0-63-28-63-63s28-63 63-63l125 0c103 0 187 84 187 188l0 500c0 104-84 188-187 188l-125 0c-35 0-63-28-63-63s28-62 63-62z m-19-357c25 24 25 64 0 88l-250 250c-24 25-64 25-88 0s-25-64 0-88l143-143-411 0c-35 0-63-28-63-63s28-62 63-62l411 0-143-144c-25-24-25-64 0-88s64-25 88 0l250 250z" horiz-adv-x="1000" />

<glyph glyph-name="arrow-rotate-left-solid" unicode="&#xe827;" d="M246 538h98c34 0 62-28 62-63s-28-62-62-62h-250c-35 0-63 27-63 62v250c0 35 28 63 63 63s62-28 62-63v-100l35 34c171 171 448 171 618 0s171-447 0-618-447-171-618 0c-25 24-25 64 0 88s64 25 88 0c122-122 320-122 442 0s122 320 0 442-320 122-442 0l-33-33z" horiz-adv-x="1000" />

<glyph glyph-name="arrow-rotate-right-solid" unicode="&#xe828;" d="M755 538h-99c-34 0-62-28-62-63s28-62 62-62h250c35 0 63 27 63 62v250c0 35-28 63-63 63s-62-28-62-63v-100l-35 34c-170 171-447 171-618 0s-171-447 0-618 448-171 618 0c25 24 25 64 0 88s-64 25-88 0c-122-122-320-122-442 0s-122 320 0 442 320 122 442 0l34-33z" horiz-adv-x="1000" />

<glyph glyph-name="arrow-trend-down-solid" unicode="&#xe829;" d="M750 163c-35 0-62-28-62-63s27-62 62-62h313c34 0 62 27 62 62v313c0 34-28 62-62 62s-63-28-63-62v-162l-331 331c-24 24-64 24-88 0l-206-206-268 268c-25 25-64 25-89 0s-24-64 0-88l313-313c24-24 64-24 88 0l206 206 287-286h-162z" horiz-adv-x="1125" />

<glyph glyph-name="arrow-trend-up-solid" unicode="&#xe82a;" d="M750 538c-35 0-62 27-62 62s27 63 62 63h313c34 0 62-28 62-63v-312c0-35-28-63-62-63s-63 28-63 63v161l-331-331c-24-24-64-24-88 0l-206 206-268-268c-25-25-64-25-89 0s-24 64 0 88l313 313c24 24 64 24 88 0l206-206 287 287h-162z" horiz-adv-x="1125" />

<glyph glyph-name="arrow-turn-down-solid" unicode="&#xe82b;" d="M63 725c-35 0-63 28-63 63s28 62 63 62l187 0c104 0 188-84 188-187l0-599 143 143c24 24 64 24 88 0s25-64 0-89l-250-250c-24-24-64-24-88 0l-250 250c-25 25-25 64 0 89s64 24 88 0l144-143 0 599c0 34-28 62-63 62l-187 0z" horiz-adv-x="750" />

<glyph glyph-name="arrow-turn-up-solid" unicode="&#xe82c;" d="M63-25c-35 0-63-28-63-63s28-62 63-62l187 0c104 0 188 84 188 188l0 599 143-144c24-24 64-24 88 0s25 64 0 89l-250 250c-24 24-64 24-88 0l-250-250c-25-25-25-64 0-89s64-24 88 0l144 144 0-599c0-35-28-63-63-63l-187 0z" horiz-adv-x="750" />

<glyph glyph-name="arrow-up-long-solid" unicode="&#xe82d;" d="M419 832c-24 24-64 24-88 0l-250-250c-25-25-25-64 0-89s64-24 88 0l144 144v-725c0-34 27-62 62-62s63 28 63 62v725l143-144c24-24 64-24 88 0s25 64 0 89l-250 250z" horiz-adv-x="750" />

<glyph glyph-name="arrows-left-right-solid" unicode="&#xe82e;" d="M794 118l188 188c24 24 24 64 0 88l-188 188c-24 24-64 24-88 0s-25-64 0-89l81-80-574 0 81 80c25 25 25 64 0 89s-64 24-88 0l-188-188c-24-24-24-64 0-88l188-188c24-24 64-24 88 0s25 64 0 89l-80 81 573 0-81-81c-25-25-25-64 0-89s64-24 88 0z" horiz-adv-x="1000" />

<glyph glyph-name="arrows-left-right-to-line-solid" unicode="&#xe82f;" d="M63 725c34 0 62-28 62-62l0-625c0-35-28-63-62-63s-63 28-63 63v625c0 34 28 62 63 62z m419-143c24-25 24-64 0-89l-81-80 448 0-81 80c-24 25-24 64 0 89s64 24 89 0l187-188c25-24 25-64 0-88l-187-188c-25-24-64-24-89 0s-24 64 0 89l81 81-448 0 81-81c24-25 24-64 0-89s-64-24-89 0l-187 188c-25 24-25 64 0 88l187 188c25 24 64 24 89 0z m768 81v-625c0-35-28-63-62-63s-63 28-63 63v625c0 34 28 62 63 62s62-28 62-62z" horiz-adv-x="1250" />

<glyph glyph-name="arrows-rotate-solid" unicode="&#xe830;" d="M205 454c15 43 40 83 74 117 122 122 320 122 442 0l34-33h-99c-34 0-62-28-62-63s28-62 62-62h249c0 0 0 0 0 0h1c35 0 63 27 63 62v250c0 35-28 63-63 63s-62-28-62-63v-100l-35 34c-170 171-447 171-618 0-48-47-82-103-103-163-12-33 5-68 38-80s68 6 79 38z m-129-169c-10-3-19-8-27-16-7-8-13-17-15-27-1-3-2-5-2-8-1-3-1-6-1-10v-249c0-35 28-63 63-63s62 28 62 63v100l35-34 0 0c171-171 448-171 618 0 48 47 82 103 104 163 11 33-6 68-39 80s-68-6-79-38c-15-43-40-83-74-117-122-122-320-122-442 0l0 0-34 34h99c34 0 62 27 62 62s-28 63-62 63h-249c-4 0-7-1-10-1s-6-1-9-2z" horiz-adv-x="1000" />

<glyph glyph-name="arrows-spin-solid" unicode="&#xe831;" d="M500 663c75 0 144-27 198-71l-64-64c-9-9-11-22-7-34s17-19 29-19h219c17 0 31 14 31 31v219c0 13-7 24-19 29s-25 2-34-7l-66-66c-77 66-177 107-287 107-21 0-42-2-62-5v-127c20 4 41 7 62 7z m-242-115l64-64c9-9 22-11 34-7s19 17 19 29v219c0 17-14 31-31 31h-219c-13 0-24-7-29-19s-2-25 7-34l66-66c-66-77-106-177-106-287 0-21 1-42 4-62h127c-4 20-6 41-6 62 0 75 26 144 70 198z m675-135h-127c4-21 7-41 7-63 0-75-27-144-71-198l-64 64c-9 9-22 11-34 7s-19-17-19-29v-219c0-17 14-31 31-31h219c13 0 24 7 29 19s2 25-7 34l-66 67c66 76 107 176 107 286 0 21-2 42-5 63z m-433-375c-75 0-144 26-198 70l64 64c9 9 11 22 7 34s-17 19-29 19h-219c-17 0-31-14-31-31l0-219c0-13 7-24 19-29s25-2 34 7l67 66c76-66 176-107 286-107 21 0 42 2 63 5v127c-21-4-41-6-63-6z" horiz-adv-x="1000" />

<glyph glyph-name="arrows-split-up-and-left-solid" unicode="&#xe832;" d="M482 556c-25-25-64-25-89 0s-24 64 0 88l188 188c24 24 64 24 88 0l188-188c24-24 24-64 0-88s-64-25-89 0l-80 81v-537c0-69 56-125 125-125h125c34 0 62-28 62-63s-28-62-62-62h-125c-139 0-250 112-250 250 0 69-57 125-125 125h-224l80-81c25-24 25-64 0-88s-64-25-88 0l-188 187c-24 25-24 64 0 89l188 187c24 25 64 25 88 0s25-64 0-88l-80-81h224c45 0 88-12 125-33v320l-81-81z" horiz-adv-x="1000" />

<glyph glyph-name="arrows-to-circle-solid" unicode="&#xe833;" d="M18 832c25 24 64 24 89 0l206-206v37c0 34 27 62 62 62s63-28 63-62v-188c0-8-2-17-5-24-3-7-8-14-14-20l0 0c-6-6-13-10-20-14-7-3-15-4-24-4h-187c-35 0-63 28-63 62s28 63 63 63h36l-206 205c-24 25-24 64 0 89z m482-482a125 125 0 1 0 250 0 125 125 0 1 0-250 0z m-276-187h-36c-35 0-63 27-63 62s28 63 63 63h187 0l0 0c17 0 33-7 44-19l0 0c6-6 11-13 14-20 3-7 5-15 5-24v-187c0-35-28-63-63-63s-62 28-62 63v36l-206-206c-25-24-64-24-89 0s-24 64 0 89l206 206z m589 500c0 34 27 62 62 62s63-28 63-62v-37l205 206c25 24 64 24 89 0s24-64 0-89l-206-205h37c34 0 62-28 62-63s-28-62-62-62h-188c-17 0-33 7-44 18l0 0c-6 6-11 13-14 20s-4 15-4 24l0 0v0 188z m213-500l206-206c24-25 24-64 0-89s-64-24-89 0l-205 206v-36c0-35-28-63-63-63s-62 28-62 63v187 0c0 0 0 0 0 0 0 9 1 17 4 24 3 7 8 14 14 20 11 12 26 19 44 19 0 0 0 0 0 0h0 187c35 0 63-28 63-63s-28-62-63-62h-36z" horiz-adv-x="1250" />

<glyph glyph-name="arrows-to-dot-solid" unicode="&#xe834;" d="M500 850c35 0 63-28 63-62v-63h62c25 0 48-15 58-39s4-50-14-68l-125-125c-24-24-64-24-88 0l-125 125c-18 18-23 45-14 68s33 39 58 39h63v63c0 34 28 62 62 62z m-169-768l125 125c24 24 64 24 88 0l125-125c18-18 24-45 14-68s-33-39-58-39h-62v-63c0-34-28-62-63-62s-62 28-62 62v63h-63c-25 0-48 15-58 39s-4 50 14 68z m-268 331h62v62c0 25 15 48 39 58s50 4 68-14l125-125c24-24 24-64 0-88l-125-125c-18-18-45-23-68-14s-39 33-39 58v63h-62c-35 0-63 27-63 62s28 63 63 63z m580-107c-24 24-24 64 0 88l125 125c18 18 45 24 69 14s38-33 38-58v-62h63c34 0 62-28 62-63s-28-62-62-62h-63v-63c0-25-15-48-39-58s-50-4-68 14l-125 125z m-143 107a63 63 0 1 0 0-125 63 63 0 1 0 0 125z" horiz-adv-x="1000" />

<glyph glyph-name="arrows-to-eye-solid" unicode="&#xe835;" d="M29 821c19 18 48 18 67 0l123-123v74c0 26 21 47 47 47s47-21 47-47v-188c0-26-21-46-47-46h-188c-26 0-47 20-47 46s21 47 47 47h75l-124 123c-18 19-18 48 0 67z m232-447c49 98 174 257 364 257s315-159 364-257c8-15 8-33 0-48-49-98-174-257-364-257s-315 159-364 257c-8 15-8 33 0 48z m364-149a125 125 0 1 1 0 250 125 125 0 1 1 0-250z m529 596c19 18 48 18 67 0s18-48 0-66l-123-124h74c26 0 47-20 47-46s-21-47-47-47h-188c-26 0-46 21-46 47v187c0 26 20 47 46 47s47-21 47-47v-74l123 123z m-1125-942c-18 19-18 48 0 66l123 124h-74c-26 0-47 21-47 46s21 47 47 47h188c26 0 47-21 47-47v-187c0-26-21-47-47-47s-47 21-47 47v75l-123-124c-19-18-48-18-66 0z m1125 0l-123 123v-74c0-26-21-47-47-47s-46 21-46 47v188c0 26 20 47 46 47h188c26 0 47-21 47-47s-21-47-47-47h-74l123-123c18-19 18-48 0-67s-48-18-67 0z" horiz-adv-x="1250" />

<glyph glyph-name="arrows-turn-right-solid" unicode="&#xe836;" d="M581 832c24 24 64 24 88 0l188-188c24-24 24-64 0-88l-188-188c-24-24-64-24-88 0s-25 64 0 89l81 81h-412c-69 0-125-57-125-125v-63c0-35-28-62-62-62s-63 27-63 62v63c0 138 112 250 250 250h412l-81 80c-25 25-25 64 0 89z m-188-500c25 24 64 24 89 0l187-188c25-24 25-64 0-88l-187-188c-25-24-64-24-89 0s-24 64 0 89l81 81h-286c-35 0-63-28-63-63v-63c0-34-28-62-62-62s-63 28-63 62v63c0 104 84 188 188 188h286l-81 80c-24 25-24 64 0 89z" horiz-adv-x="875" />

<glyph glyph-name="arrows-up-down-solid" unicode="&#xe837;" d="M357 832c-25 24-64 24-89 0l-187-188c-25-24-25-64 0-88s64-25 88 0l81 81v-573l-81 80c-24 25-64 25-88 0s-25-64 0-88l187-188c25-24 64-24 89 0l187 188c25 24 25 64 0 88s-64 25-88 0l-81-80v573l81-81c24-25 64-25 88 0s25 64 0 88l-187 188z" horiz-adv-x="625" />

<glyph glyph-name="arrows-up-down-left-right-solid" unicode="&#xe838;" d="M544 832c-24 24-64 24-88 0l-125-125c-25-25-25-64 0-89s64-24 88 0l19 19v-224h-224l18 18c24 24 24 64 0 88s-64 25-89 0l-125-125c-24-24-24-64 0-88l125-125c25-25 64-25 89 0s24 64 0 88l-18 19h224v-224l-19 18c-24 24-64 24-88 0s-25-64 0-89l125-125c24-24 64-24 88 0l125 125c25 25 25 64 0 89s-64 24-88 0l-19-18v224h225l-19-19c-24-24-24-64 0-88s64-25 89 0l125 125c24 24 24 64 0 88l-125 125c-25 25-64 25-89 0s-24-64 0-88l19-19h-224v225l18-19c24-24 64-24 88 0s25 64 0 89l-125 125z" horiz-adv-x="1000" />

<glyph glyph-name="asterisk-solid" unicode="&#xe839;" d="M375 788c35 0 63-28 63-63v-265l217 131c30 18 68 8 86-21s8-68-21-86l-223-134 223-134c29-18 39-56 21-86s-56-39-85-21l-218 131v-265c0-35-28-63-63-63s-62 28-62 63v265l-218-131c-30-18-68-8-86 22s-8 67 22 85l223 134-224 134c-29 18-39 56-21 86s56 39 86 21l218-131v265c0 35 27 63 62 63z" horiz-adv-x="750" />

<glyph glyph-name="arrows-up-to-line-solid" unicode="&#xe83a;" d="M63 663l1000 0c34 0 62 27 62 62s-28 63-62 63l-1000 0c-35 0-63-28-63-63s28-62 63-62z m-45-269c-24-24-24-64 0-88s64-25 89 0l81 81 0-412c0-35 27-63 62-63s63 28 63 63l0 412 80-81c25-25 64-25 89 0s24 64 0 88l-188 188c-24 24-64 24-88 0l-188-188z m625-88c25-25 64-25 89 0l81 81 0-412c0-35 27-63 62-63s63 28 63 63l0 412 80-81c25-25 64-25 89 0s24 64 0 88l-188 188c-24 24-64 24-88 0l-188-188c-24-24-24-64 0-88z" horiz-adv-x="1125" />

<glyph glyph-name="backward-fast-solid" unicode="&#xe83b;" d="M964-19c-22-11-48-7-66 8l-335 280v-231c0-25-15-47-36-57s-48-7-67 8l-335 280v-231c0-35-28-63-62-63s-63 28-63 63v625c0 34 28 62 63 62s62-28 62-62v-232l335 280c19 15 45 19 67 8s36-32 36-56v-232l335 280c18 15 44 19 66 8s36-32 36-56v-625c0-25-14-47-36-57z" horiz-adv-x="1000" />

<glyph glyph-name="basket-shopping-solid" unicode="&#xe83c;" d="M495 781c12 24 3 52-20 64s-52 3-63-20l-182-350h-167c-35 0-63-28-63-62s28-63 63-63l101-405c14-56 64-95 121-95h555c57 0 107 39 121 95l102 405c34 0 62 28 62 63s-28 62-62 62h-168l-181 350c-12 23-41 32-64 20s-32-40-20-64l160-306h-455l160 306z m-120-525v-187c0-17-14-31-31-31s-31 14-31 31v187c0 17 14 32 31 32s31-15 31-32z m188 32c17 0 31-15 31-32v-187c0-17-14-31-31-31s-32 14-32 31v187c0 17 14 32 32 32z m250-32v-187c0-17-15-31-32-31s-31 14-31 31v187c0 17 14 32 31 32s32-15 32-32z" horiz-adv-x="1125" />

<glyph glyph-name="backward-step-solid" unicode="&#xe83d;" d="M523-11c18-15 44-19 66-8s36 32 36 57v625c0 24-14 46-36 56s-48 7-66-8l-375-313-23-19v284c0 34-28 62-62 62s-63-28-63-62v-625c0-35 28-63 63-63s62 28 62 63v283l23-19 375-313z" horiz-adv-x="625" />

<glyph glyph-name="battery-empty-solid" unicode="&#xe83e;" d="M156 538c-17 0-31-15-31-32v-312c0-17 14-31 31-31h750c17 0 32 14 32 31v312c0 17-15 32-32 32h-750z m-156-32c0 87 70 157 156 157h750c87 0 157-70 157-157v-31c34 0 62-28 62-62v-125c0-35-28-63-62-63v-31c0-87-70-156-157-156h-750c-86 0-156 69-156 156v312z" horiz-adv-x="1125" />

<glyph glyph-name="ban-solid" unicode="&#xe83f;" d="M717 44l-523 523c-43-61-69-136-69-217 0-207 168-375 375-375 81 0 156 26 217 69z m89 89c43 61 69 136 69 217 0 207-168 375-375 375-81 0-156-26-217-69l523-523z m-806 217a500 500 0 1 0 1000 0 500 500 0 1 0-1000 0z" horiz-adv-x="1000" />

<glyph glyph-name="battery-half-solid" unicode="&#xe840;" d="M906 538c17 0 32-15 32-32v-312c0-17-15-31-32-31h-750c-17 0-31 14-31 31v312c0 17 14 32 31 32h750z m-750 125c-86 0-156-70-156-157v-312c0-87 70-156 156-156h750c87 0 157 69 157 156v31c34 0 62 28 62 63v125c0 34-28 62-62 62v31c0 87-70 157-157 157h-750z m407-188h-375v-250h375v250z" horiz-adv-x="1125" />

<glyph glyph-name="battery-full-solid" unicode="&#xe841;" d="M906 538c17 0 32-15 32-32v-312c0-17-15-31-32-31h-750c-17 0-31 14-31 31v312c0 17 14 32 31 32h750z m-750 125c-86 0-156-70-156-157v-312c0-87 70-156 156-156h750c87 0 157 69 157 156v31c34 0 62 28 62 63v125c0 34-28 62-62 62v31c0 87-70 157-157 157h-750z m719-188h-687v-250h687v250z" horiz-adv-x="1125" />

<glyph glyph-name="bell-slash-solid" unicode="&#xe842;" d="M76 840c-20 16-50 12-66-8s-12-50 8-66l1156-906c21-16 50-12 66 8s12 50-8 66l-171 134c1 3 2 7 2 10 0 54-22 106-60 144l-3 3c-40 40-62 94-62 151v68c0 151-108 277-250 306v38c0 34-28 62-63 62s-62-28-62-62v-38c-84-17-155-67-200-135l-287 225z m237-464c0-57-23-111-63-151l-3-3c-38-38-59-90-59-144 0-22 18-40 40-40h565l-480 378v-40z m437-401h-125-125c0-33 13-65 37-89s55-36 88-36 65 13 89 36 36 56 36 89z" horiz-adv-x="1250" />

<glyph glyph-name="caret-right-solid" unicode="&#xe843;" d="M482 306c24 24 24 64 0 88l-250 250c-18 18-45 24-68 14s-39-33-39-58l0-500c0-25 15-48 39-58s50-4 68 14l250 250z" horiz-adv-x="500" />

<glyph glyph-name="chevron-left-solid" unicode="&#xe844;" d="M18 394c-24-24-24-64 0-88l375-375c25-25 64-25 89 0s24 64 0 88l-331 331 331 331c24 24 24 64 0 88s-64 25-89 0l-375-375z" horiz-adv-x="625" />

<glyph glyph-name="battery-three-quarters-solid" unicode="&#xe845;" d="M906 538c17 0 32-15 32-32v-312c0-17-15-31-32-31h-750c-17 0-31 14-31 31v312c0 17 14 32 31 32h750z m-750 125c-86 0-156-70-156-157v-312c0-87 70-156 156-156h750c87 0 157 69 157 156v31c34 0 62 28 62 63v125c0 34-28 62-62 62v31c0 87-70 157-157 157h-750z m532-188h-500v-250h500v250z" horiz-adv-x="1125" />

<glyph glyph-name="battery-quarter-solid" unicode="&#xe846;" d="M906 538c17 0 32-15 32-32v-312c0-17-15-31-32-31h-750c-17 0-31 14-31 31v312c0 17 14 32 31 32h750z m-750 125c-86 0-156-70-156-157v-312c0-87 70-156 156-156h750c87 0 157 69 157 156v31c34 0 62 28 62 63v125c0 34-28 62-62 62v31c0 87-70 157-157 157h-750z m219-188h-187v-250h187v250z" horiz-adv-x="1125" />

<glyph glyph-name="caret-left-solid" unicode="&#xe847;" d="M18 306c-24 24-24 64 0 88l250 250c18 18 45 24 69 14s38-33 38-58l0-500c0-25-15-48-38-58s-51-4-69 14l-250 250z" horiz-adv-x="500" />

<glyph glyph-name="ellipsis-solid" unicode="&#xe848;" d="M16 350a109 109 0 1 0 218 0 109 109 0 1 0-218 0z m312 0a109 109 0 1 0 219 0 109 109 0 1 0-219 0z m422 109a109 109 0 1 0 0-218 109 109 0 1 0 0 218z" horiz-adv-x="875" />

<glyph glyph-name="compress-solid" unicode="&#xe849;" d="M313 725c0 35-28 63-63 63s-62-28-62-63v-125h-125c-35 0-63-28-63-62s28-63 63-63h187c35 0 63 28 63 63v187z m-250-500c-35 0-63-28-63-62s28-63 63-63h125v-125c0-35 27-63 62-63s63 28 63 63v188c0 34-28 62-63 62h-187z m625 500c0 35-28 63-63 63s-62-28-62-63v-187c0-35 27-63 62-63h188c34 0 62 28 62 63s-28 62-62 62h-125v125z m-63-500c-35 0-62-28-62-62v-188c0-35 27-63 62-63s63 28 63 63v125h125c34 0 62 28 62 63s-28 62-62 62h-188z" horiz-adv-x="875" />

<glyph glyph-name="calendar-xmark-solid" unicode="&#xe84a;" d="M313 850c34 0 62-28 62-62v-63h250v63c0 34 28 62 63 62s62-28 62-62v-63h94c52 0 94-42 94-94v-93h-875v93c0 52 42 94 93 94h94v63c0 34 28 62 63 62z m-250-375h875v-531c0-52-42-94-94-94h-688c-51 0-93 42-93 94v531z m595-221c19 19 19 48 0 67s-48 18-66 0l-92-92-92 92c-18 18-48 18-66 0s-18-48 0-67l92-91-92-92c-18-19-18-48 0-66s48-19 66 0l92 91 92-91c18-19 48-19 66 0s19 48 0 66l-92 92 92 91z" horiz-adv-x="1000" />

<glyph glyph-name="divide-solid" unicode="&#xe84b;" d="M531 663a94 94 0 1 1-187 0 94 94 0 1 1 187 0z m0-625a94 94 0 1 1-187 0 94 94 0 1 1 187 0z m250 250c35 0 63 27 63 62s-28 63-63 63h-687c-35 0-63-28-63-63s28-62 63-62h687z" horiz-adv-x="875" />

<glyph glyph-name="chevron-right-solid" unicode="&#xe84c;" d="M607 394c24-24 24-64 0-88l-375-375c-25-25-64-25-89 0s-24 64 0 88l331 331-331 331c-24 24-24 64 0 88s64 25 89 0l375-375z" horiz-adv-x="625" />

<glyph glyph-name="calendar-plus-solid" unicode="&#xe84d;" d="M250 788v-63h-94c-51 0-93-42-93-94v-93h875v93c0 52-42 94-94 94h-94v63c0 34-28 62-62 62s-63-28-63-62v-63h-250v63c0 34-28 62-62 62s-63-28-63-62z m688-313h-875v-531c0-52 42-94 93-94h688c52 0 94 42 94 94v531z m-438-109c26 0 47-21 47-47v-110h109c26 0 47-20 47-46s-21-47-47-47h-109v-110c0-26-21-47-47-47s-47 21-47 47v110h-109c-26 0-47 21-47 47s21 46 47 46h109v110c0 26 21 47 47 47z" horiz-adv-x="1000" />

<glyph glyph-name="file-image-solid" unicode="&#xe84e;" d="M125 850c-69 0-125-56-125-125v-750c0-69 56-125 125-125h500c69 0 125 56 125 125v563h-250c-35 0-62 27-62 62v250h-313z m375 0v-250h250l-250 250z m-375-500a63 63 0 1 0 125 0 63 63 0 1 0-125 0z m297-62c10 0 20-6 26-14l172-250c6-9 7-22 2-32s-16-17-28-17h-172-78-94-94c-11 0-21 6-27 16s-5 22 1 31l93 157c6 9 16 15 27 15s21-6 27-15l25-42 94 137c6 8 16 13 26 13z" horiz-adv-x="750" />

<glyph glyph-name="down-long-solid" unicode="&#xe84f;" d="M4 197c-8-17-4-37 9-51l266-281c8-10 21-15 34-15s25 5 34 15l265 281c13 14 17 34 9 51s-24 28-43 28l-140 0 0 563c0 34-28 62-63 62l-125 0c-35 0-62-28-62-62l0-563-141 0c-19 0-36-11-43-28z" horiz-adv-x="625" />

<glyph glyph-name="ellipsis-vertical-solid" unicode="&#xe850;" d="M125 147a109 109 0 1 1 0-219 109 109 0 1 1 0 219z m0 312a109 109 0 1 1 0-218 109 109 0 1 1 0 218z m109 204a109 109 0 1 1-218 0 109 109 0 1 1 218 0z" horiz-adv-x="250" />

<glyph glyph-name="down-left-and-up-right-to-center-solid" unicode="&#xe851;" d="M857 836c19 19 49 19 67 0l62-62c19-18 19-48 0-66l-170-170 76-76c14-14 18-34 11-52s-25-29-44-29h-281c-26 0-47 21-47 47v281c0 19 12 37 29 44s38 3 51-10l77-77 169 170z m-716-517h281c26 0 47-21 47-47v-281c0-19-12-37-29-44s-38-3-51 10l-76 77-170-170c-19-19-48-19-67 0l-62 62c-19 18-19 48 0 66l170 170-77 77c-13 13-17 33-10 51s25 29 44 29z" horiz-adv-x="1000" />

<glyph glyph-name="file-medical-solid" unicode="&#xe852;" d="M125 850c-69 0-125-56-125-125v-750c0-69 56-125 125-125h500c69 0 125 56 125 125v563h-250c-35 0-62 27-62 62v250h-313z m375 0v-250h250l-250 250z m-187-469c0 17 14 32 31 32h62c17 0 32-15 32-32v-93h93c17 0 32-15 32-32v-62c0-17-15-31-32-31h-93v-94c0-17-15-31-32-31h-62c-17 0-31 14-31 31v94h-94c-17 0-31 14-31 31v62c0 17 14 32 31 32h94v93z" horiz-adv-x="750" />

<glyph glyph-name="clock-rotate-left-solid" unicode="&#xe853;" d="M147 704l-67 66c-29 29-80 9-80-33v-215c0-26 21-47 47-47h215c42 0 63 51 33 80l-60 60c68 68 162 110 265 110 207 0 375-168 375-375s-168-375-375-375c-80 0-153 25-214 67-29 20-67 13-87-15s-13-67 15-87c81-57 180-90 286-90 276 0 500 224 500 500s-224 500-500 500c-138 0-263-56-353-146z m353-104c-26 0-47-21-47-47v-203c0-12 5-24 14-33l140-141c19-18 49-18 67 0s18 48 0 66l-127 127v184c0 26-21 47-47 47z" horiz-adv-x="1000" />

<glyph glyph-name="file-shield-solid" unicode="&#xe854;" d="M0 725c0 69 56 125 125 125h313v-250c0-35 27-62 62-62h250v-92l-181-73c-42-16-69-57-69-101 0-111 37-289 184-407-18-10-38-15-59-15h-500c-69 0-125 56-125 125v750z m750-125h-250v250l250-250z m76-191c12 5 24 5 35 0l235-94c17-7 29-24 29-43 0-124-51-330-263-419-12-4-25-4-36 0-213 89-263 295-263 419 0 19 11 36 29 43l234 94z m204-168l-186 74v-367c133 65 179 194 186 293z" horiz-adv-x="1125" />

<glyph glyph-name="calendar-minus-solid" unicode="&#xe855;" d="M313 850c34 0 62-28 62-62v-63h250v63c0 34 28 62 63 62s62-28 62-62v-63h94c52 0 94-42 94-94v-93h-875v93c0 52 42 94 93 94h94v63c0 34 28 62 63 62z m-250-375h875v-531c0-52-42-94-94-94h-688c-51 0-93 42-93 94v531z m609-359c26 0 47 21 47 47s-21 46-47 46h-344c-26 0-47-20-47-46s21-47 47-47h344z" horiz-adv-x="1000" />

<glyph glyph-name="filter-circle-xmark-solid" unicode="&#xe856;" d="M8 805c13 28 40 45 70 45h844c30 0 58-17 70-45s9-59-10-83l-208-254c-156-32-274-171-274-337 0-53 12-104 34-149-3 1-6 3-9 5l-125 94c-16 12-25 31-25 50v155l-357 437c-19 23-24 55-10 82z m836-392a281 281 0 1 0 0-563 281 281 0 1 0 0 563z m116-210c12 12 12 32 0 44s-32 12-45 0l-71-72-72 72c-12 12-32 12-44 0s-12-32 0-44l72-72-72-71c-12-12-12-32 0-45s32-12 44 0l72 72 71-72c13-12 33-12 45 0s12 33 0 45l-72 71 72 72z" horiz-adv-x="1125" />

<glyph glyph-name="file-lines-solid" unicode="&#xe857;" d="M125 850c-69 0-125-56-125-125v-750c0-69 56-125 125-125h500c69 0 125 56 125 125v563h-250c-35 0-62 27-62 62v250h-313z m375 0v-250h250l-250 250z m-281-500h312c17 0 32-14 32-31s-15-31-32-31h-312c-17 0-31 14-31 31s14 31 31 31z m0-125h312c17 0 32-14 32-31s-15-31-32-31h-312c-17 0-31 14-31 31s14 31 31 31z m0-125h312c17 0 32-14 32-31s-15-31-32-31h-312c-17 0-31 14-31 31s14 31 31 31z" horiz-adv-x="750" />

<glyph glyph-name="folder-tree-solid" unicode="&#xe858;" d="M125 788c0 34-28 62-62 62s-63-28-63-62v-188-500c0-69 56-125 125-125h375v125h-375v438h375v125h-375v125z m438-313c0-35 27-62 62-62h438c34 0 62 27 62 62v250c0 35-28 63-62 63h-193c-17 0-33 6-44 18l-26 26c-12 11-28 18-44 18h-131c-35 0-62-28-62-62v-313z m0-563c0-34 27-62 62-62h438c34 0 62 28 62 62v251c0 34-28 62-62 62h-193c-17 0-33 7-44 18l-26 26c-12 12-28 19-44 19h-131c-35 0-62-28-62-63v-313z" horiz-adv-x="1125" />

<glyph glyph-name="file-pen-solid" unicode="&#xe859;" d="M0 725c0 69 56 125 125 125h313v-250c0-35 27-62 62-62h250v-246l-169-169c-21-21-35-46-41-73l-37-147c-5-18-4-36 3-53h-381c-69 0-125 56-125 125v750z m750-125h-250v250l250-250z m324-210l28-28c30-31 30-80 0-111l-57-57-139 138 57 58c31 30 80 30 111 0z m-465-354l253 252 138-139-252-252c-8-8-18-14-29-16l-118-30c-10-2-21 1-29 9s-11 18-8 29l29 118c3 11 8 21 16 29z" horiz-adv-x="1125" />

<glyph glyph-name="file-signature-solid" unicode="&#xe85a;" d="M125 850c-69 0-125-56-125-125v-750c0-69 56-125 125-125h500c69 0 125 56 125 125v38c-5-2-10-4-16-6l-117-29c-6-1-12-2-18-3-2 0-3 0-5 0h-125c-12 0-23 7-28 17l-17 35c-4 6-10 11-18 11s-14-5-17-11l-17-35c-6-11-18-18-31-17s-23 10-27 22l-33 109-19-64c-12-40-48-67-90-67h-16c-17 0-31 14-31 31s14 32 31 32h16c14 0 26 9 30 22l29 96c7 23 27 38 50 38s44-15 50-38l23-75c14 12 33 19 52 19 31 0 60-18 74-45l8-17h18c-7 17-8 35-3 54l29 117c6 22 17 42 33 58l185 185v86h-250c-35 0-62 27-62 62v250h-313z m375 0v-250h250l-250 250z m574-273c-31 31-80 31-111 0l-57-57 139-139 57 58c30 30 30 79 0 110l-28 28z m-465-354c-8-8-13-18-16-29l-29-117c-3-11 0-22 8-30s19-11 29-8l118 29c11 3 21 8 29 16l252 253-138 139-253-253z" horiz-adv-x="1125" />

<glyph glyph-name="equals-solid" unicode="&#xe85b;" d="M94 600c-35 0-63-28-63-62s28-63 63-63h687c35 0 63 28 63 63s-28 62-63 62h-687z m0-375c-35 0-63-28-63-62s28-63 63-63h687c35 0 63 28 63 63s-28 62-63 62h-687z" horiz-adv-x="875" />

<glyph glyph-name="folder-plus-solid" unicode="&#xe85c;" d="M1000 38c0-69-56-126-125-126h-750c-69 0-125 57-125 126v625c0 68 56 125 125 125h250c39 0 76-19 100-50l38-50c11-16 30-25 50-25h312c69 0 125-57 125-125v-500z m-547 78c0-26 21-47 47-47s47 21 47 47v125h125c26 0 47 21 47 47s-21 46-47 46h-125v125c0 26-21 47-47 47s-47-21-47-47v-125h-125c-26 0-47-20-47-46s21-47 47-47h125v-125z" horiz-adv-x="1000" />

<glyph glyph-name="forward-fast-solid" unicode="&#xe85d;" d="M36-19c22-11 48-7 67 8l335 280v-231c0-25 14-47 35-57s48-7 67 8l335 280v-231c0-35 28-63 63-63s62 28 62 63v625c0 34-28 62-62 62s-63-28-63-62v-232l-335 280c-18 15-44 19-67 8s-35-32-35-56v-232l-335 280c-19 15-45 19-67 8s-36-32-36-56v-625c0-25 14-47 36-57z" horiz-adv-x="1000" />

<glyph glyph-name="folder-closed-solid" unicode="&#xe85e;" d="M875-88h-750c-69 0-125 57-125 126v437h1000v-437c0-69-56-126-125-126z m125 626h-1000v125c0 68 56 125 125 125h250c39 0 76-19 100-50l38-50c11-16 30-25 50-25h312c69 0 125-57 125-125z" horiz-adv-x="1000" />

<glyph glyph-name="font-awesome-solid" unicode="&#xe85f;" d="M875 756v-656c-123-44-161-62-233-62-123 0-169 62-292 62-40 0-71-7-100-16v125c29 9 60 16 100 16 123 0 169-62 292-62 39 0 69 5 108 18v406c-39-12-69-18-108-18-123 0-169 62-292 62-99 0-146-40-225-56v-600c0-35-28-63-62-63s-63 28-63 63v750c0 35 28 63 63 63s62-28 62-63v-25c79 16 126 56 225 56 123 0 169-62 292-62 72 0 110 18 233 62z" horiz-adv-x="875" />

<glyph glyph-name="gem-solid" unicode="&#xe860;" d="M228 784c9 12 23 19 38 19h468c15 0 29-7 38-19l219-297c13-18 12-43-3-59l-453-500c-9-10-22-16-35-16s-26 6-35 16l-453 500c-15 16-16 41-3 59l219 297z m75-78c-6-5-8-13-4-20l112-187-287-24c-8-1-15-7-15-16s7-14 15-15l375-31c0 0 1 0 2 0l375 31c8 0 14 7 14 15s-6 15-14 16l-287 24 112 187c4 6 2 15-4 20s-16 4-21-2l-176-190-176 190c-5 6-14 7-21 2z" horiz-adv-x="1000" />

<glyph glyph-name="greater-than-solid" unicode="&#xe861;" d="M7 690c-16-30-3-68 28-83l513-257-513-257c-31-15-44-53-28-83s53-44 83-28l625 312c22 11 35 32 35 56s-13 45-35 56l-625 312c-30 16-68 3-83-28z" horiz-adv-x="750" />

<glyph glyph-name="forward-step-solid" unicode="&#xe862;" d="M103-11c-19-15-45-19-67-8s-36 32-36 57v625c0 24 14 46 36 56s48 7 67-8l375-313 22-19v284c0 34 28 62 63 62s62-28 62-62v-625c0-35-28-63-62-63s-63 28-63 63v283l-22-19-375-313z" horiz-adv-x="625" />

<glyph glyph-name="greater-than-equal-solid" unicode="&#xe863;" d="M102 667c-32 13-48 49-35 81s49 48 81 35l625-250c24-9 40-32 40-58s-16-49-40-58l-625-250c-32-13-68 3-81 35s3 68 35 81l480 192-480 192z m711-629c34 0 62-28 62-63s-28-63-62-63h-750c-35 0-63 28-63 63s28 63 63 63h750z" horiz-adv-x="875" />

<glyph glyph-name="grip-solid" unicode="&#xe864;" d="M250 584c0 44-35 79-78 79l-94 0c-43 0-78-35-78-79l0-93c0-43 35-78 78-78h94c43 0 78 35 78 78l0 93z m0-375c0 44-35 79-78 79h-94c-43 0-78-35-78-79l0-93c0-43 35-78 78-78h94c43 0 78 35 78 78v93z m63 375v-93c0-43 35-78 78-78h93c44 0 79 35 79 78v93c0 44-35 79-79 79l-93 0c-43 0-78-35-78-79z m250-375c0 44-35 79-79 79h-93c-43 0-78-35-78-79l0-93c0-43 35-78 78-78h93c44 0 79 35 79 78v93z m62 375v-93c0-43 35-78 78-78h94c43 0 78 35 78 78v93c0 44-35 79-78 79l-94 0c-43 0-78-35-78-79z m250-375c0 44-35 79-78 79h-94c-43 0-78-35-78-79v-93c0-43 35-78 78-78h94c43 0 78 35 78 78v93z" horiz-adv-x="875" />

<glyph glyph-name="grip-lines-solid" unicode="&#xe865;" d="M63 288c-35 0-63-28-63-63s28-62 63-62l750 0c34 0 62 27 62 62s-28 63-62 63l-750 0z m0 250c-35 0-63-28-63-63s28-62 63-62l750 0c34 0 62 27 62 62s-28 63-62 63l-750 0z" horiz-adv-x="875" />

<glyph glyph-name="grip-lines-vertical-solid" unicode="&#xe866;" d="M125 725c0 35-28 63-62 63s-63-28-63-63v-750c0-35 28-63 63-63s62 28 62 63v750z m250 0c0 35-28 63-62 63s-63-28-63-63v-750c0-35 28-63 63-63s62 28 62 63v750z" horiz-adv-x="375" />

<glyph glyph-name="infinity-solid" unicode="&#xe867;" d="M0 379c0 157 127 284 283 284 76 0 148-30 201-83l141-141 141 141c53 53 125 83 201 83 156 0 283-127 283-284v-58c0-156-127-283-283-283-76 0-148 29-201 83l-141 141-141-141c-53-54-125-83-201-83-156 0-283 127-283 283v58z m537-29l-141 141c-30 30-71 47-113 47-87 0-158-71-158-159v-58c0-87 71-158 158-158 42 0 83 16 113 46l141 141z m176 0l141-141c30-30 70-46 112-46 88 0 159 70 159 158v58c0 88-71 159-159 159-42 0-82-17-112-47l-140-141z" horiz-adv-x="1250" />

<glyph glyph-name="left-long-solid" unicode="&#xe868;" d="M347 41c-17-7-37-3-51 9l-281 266c-10 9-15 21-15 34s5 25 15 34l281 266c14 13 34 16 51 9s28-25 28-43l0-141 563 0c34 0 62-28 62-62l0-125c0-35-28-63-62-63l-563 0 0-141c0-18-11-35-28-43z" horiz-adv-x="1000" />

<glyph glyph-name="left-right-solid" unicode="&#xe869;" d="M985 316c10 8 15 21 15 34s-5 25-15 34l-219 204c-13 12-33 16-50 8s-28-24-28-43l0-109-375 0 0 109c0 19-12 36-29 43s-36 4-50-8l-219-204c-9-9-15-21-15-34s6-25 15-34l219-203c14-13 33-16 50-9s29 24 29 43l0 109 375 0 0-109c0-19 11-36 28-43s37-4 50 9l219 203z" horiz-adv-x="1000" />

<glyph glyph-name="less-than-solid" unicode="&#xe86a;" d="M743 690c16-30 3-68-28-83l-513-257 513-257c31-15 44-53 28-83s-53-44-83-28l-625 312c-22 11-35 32-35 56s13 45 35 56l625 312c30 16 68 3 83-28z" horiz-adv-x="750" />

<glyph glyph-name="less-than-equal-solid" unicode="&#xe86b;" d="M773 667c32 13 48 49 35 81s-49 48-81 35l-625-250c-24-9-39-32-39-58s15-49 39-58l625-250c32-13 68 3 81 35s-3 68-35 81l-480 192 480 192z m-710-629c-35 0-63-28-63-63s28-63 63-63h750c34 0 62 28 62 63s-28 63-62 63h-750z" horiz-adv-x="875" />

<glyph glyph-name="lines-leaning-solid" unicode="&#xe86c;" d="M372 705c11 33-7 68-40 79s-68-6-79-39l-250-750c-11-33 7-68 40-79s68 7 79 39l250 750z m138 82c-34 5-66-18-71-52l-125-750c-6-34 17-66 51-72s66 18 72 52l125 750c5 34-18 66-52 72z m178 1c-35 0-63-28-63-63v-750c0-35 28-63 63-63s62 28 62 63v750c0 35-28 63-62 63z" horiz-adv-x="750" />

<glyph glyph-name="link-slash-solid" unicode="&#xe86d;" d="M76 840c-20 16-50 12-66-8s-12-50 8-66l1156-906c21-16 50-12 66 8s12 50-8 66l-276 216 176 177c111 111 111 289 0 400-97 97-251 110-363 30l-4-2c-28-21-34-60-14-88s59-34 87-14l3 2c63 45 149 38 203-17 62-61 62-161 0-222l-188-188-62 49c48 105 27 231-58 315-102 102-262 110-373 23l-287 225z m391-306c59 29 132 19 181-30 39-39 54-95 42-146l-223 176z m327-497l-363 286c-4-78 24-157 83-215 76-76 184-100 280-71z m-566 446l-110-110c-111-110-111-289 0-400 97-97 251-110 363-30l4 2c28 21 34 60 14 88s-59 34-87 14l-3-2c-63-45-149-38-203 17-61 61-61 161 0 223l121 120-99 78z" horiz-adv-x="1250" />

<glyph glyph-name="list-check-solid" unicode="&#xe86e;" d="M297 775c19-17 21-46 4-66l-141-156c-9-10-21-15-34-15s-25 4-34 13l-78 78c-19 19-19 48 0 67s48 18 66 0l43-43 108 119c17 19 47 21 66 4z m0-312c19-17 21-47 4-66l-141-157c-9-9-21-15-34-15s-25 5-34 14l-78 78c-19 18-19 48 0 66s48 18 66 0l43-43 108 119c17 20 47 21 66 4z m141 200c0 34 27 62 62 62h438c34 0 62-28 62-62s-28-63-62-63h-438c-35 0-62 28-62 63z m0-313c0 35 27 63 62 63h438c34 0 62-28 62-63s-28-62-62-62h-438c-35 0-62 27-62 62z m-125-312c0 34 27 62 62 62h563c34 0 62-28 62-62s-28-63-62-63h-563c-35 0-62 28-62 63z m-219 93a94 94 0 1 0 0-187 94 94 0 1 0 0 187z" horiz-adv-x="1000" />

<glyph glyph-name="list-ol-solid" unicode="&#xe86f;" d="M47 741c0 26 21 47 47 47h62c26 0 47-21 47-47v-235h31c26 0 47-21 47-47s-21-46-47-46h-156c-26 0-47 20-47 46s21 47 47 47h31v188h-15c-26 0-47 21-47 47z m122-557c-12 14-35 13-46-3l-22-30c-15-21-45-26-66-11s-26 44-11 66l22 30c46 65 141 70 194 10 41-48 40-119-2-166l-68-74h64c26 0 47-21 47-47s-21-47-47-47h-171c-19 0-36 11-43 29s-5 36 8 50l141 153c10 11 10 28 0 40z m269 541h500c34 0 62-28 62-62s-28-63-62-63h-500c-35 0-63 28-63 63s28 62 63 62z m0-312h500c34 0 62-28 62-63s-28-62-62-62h-500c-35 0-63 27-63 62s28 63 63 63z m0-313h500c34 0 62-28 62-62s-28-63-62-63h-500c-35 0-63 28-63 63s28 62 63 62z" horiz-adv-x="1000" />

<glyph glyph-name="list-ul-solid" unicode="&#xe870;" d="M125 569a94 94 0 1 1 0 187 94 94 0 1 1 0-187z m250 156c-35 0-62-28-62-62s27-63 62-63h563c34 0 62 28 62 63s-28 62-62 62h-563z m0-312c-35 0-62-28-62-63s27-62 62-62h563c34 0 62 27 62 62s-28 63-62 63h-563z m0-313c-35 0-62-28-62-62s27-63 62-63h563c34 0 62 28 62 63s-28 62-62 62h-563z m-250-156a94 94 0 1 1 0 187 94 94 0 1 1 0-187z m94 406a94 94 0 1 1-188 0 94 94 0 1 1 188 0z" horiz-adv-x="1000" />

<glyph glyph-name="location-crosshairs-solid" unicode="&#xe871;" d="M500 850c35 0 63-28 63-62v-68c157-26 281-150 307-307h68c34 0 62-28 62-63s-28-62-62-62h-68c-26-157-150-282-307-308v-68c0-34-28-62-63-62s-62 28-62 62v68c-157 26-282 151-308 308h-67c-35 0-63 27-63 62s28 63 63 63h67c26 157 151 281 308 307v68c0 34 27 62 62 62z m-250-500a250 250 0 1 1 500 0 250 250 0 1 1-500 0z m250 156a156 156 0 1 0 0-312 156 156 0 1 0 0 312z" horiz-adv-x="1000" />

<glyph glyph-name="location-pin-lock-solid" unicode="&#xe872;" d="M421-125c22 27 49 62 79 102v186c0 46 25 86 63 108v48c0 108 79 198 182 216-28 178-183 315-370 315-207 0-375-168-375-375 0-171 229-475 329-600 24-30 68-30 92 0z m-46 725a125 125 0 1 0 0-250 125 125 0 1 0 0 250z m406-219c35 0 63-28 63-62v-94h-125v94c0 34 28 62 62 62z m-156-62v-94c-35 0-62-28-62-62v-251c0-34 27-62 62-62h313c34 0 62 28 62 62v251c0 34-28 62-62 62v94c0 86-70 156-157 156s-156-70-156-156z" horiz-adv-x="1000" />

<glyph glyph-name="lock-open-solid" unicode="&#xe873;" d="M688 569c0 86 69 156 156 156s156-70 156-156v-94c0-35 28-62 63-62s62 27 62 62v94c0 155-126 281-281 281s-281-126-281-281v-94h-438c-69 0-125-56-125-125v-375c0-69 56-125 125-125h625c69 0 125 56 125 125v375c0 69-56 125-125 125h-62v94z" horiz-adv-x="1125" />

<glyph glyph-name="message-solid" unicode="&#xe874;" d="M125 850c-69 0-125-56-125-125v-562c0-69 56-125 125-125h188v-157c0-12 6-22 17-28s23-4 33 3l241 182h271c69 0 125 56 125 125v562c0 69-56 125-125 125h-750z" horiz-adv-x="1000" />

<glyph glyph-name="phone-slash-solid" unicode="&#xe875;" d="M447 802c-15 36-55 56-92 45l-172-47c-34-9-58-40-58-75 0-210 74-402 197-553l-304-238c-20-16-24-46-8-66s46-24 66-8l1156 906c20 16 24 46 8 66s-45 24-66 8l-680-533c-35 42-64 88-88 138l97 79c26 22 36 58 22 90l-78 188z m189-623l-178-141c149-118 337-188 542-188 35 0 66 24 75 58l47 172c11 37-9 77-45 92l-187 78c-32 14-69 4-91-22l-79-97c-29 14-57 30-84 48z" horiz-adv-x="1250" />

<glyph glyph-name="phone-flip-solid" unicode="&#xe876;" d="M678 802c15 36 55 56 93 45l171-47c34-9 58-40 58-75 0-483-392-875-875-875-35 0-66 24-75 58l-47 172c-11 37 9 77 45 92l188 78c31 14 68 4 90-22l79-97c137 65 249 177 314 314l-96 79c-27 22-36 58-23 90l78 188z" horiz-adv-x="1000" />

<glyph glyph-name="reply-all-solid" unicode="&#xe877;" d="M409 773c-18 19-47 19-66 2l-277-263c-39-37-39-99 0-136l277-263c19-18 48-17 66 2s17 48-2 66l-276 263 276 263c19 17 20 47 2 66z m279-48c0 25-15 47-38 57s-48 6-67-10l-312-282c-13-12-21-28-21-46s8-35 21-47l312-281c19-17 45-21 67-10s38 32 38 57v125h62c104 0 188-84 188-188 0-59-25-94-44-111-11-10-19-23-19-38 0-21 17-38 39-38 5 0 10 1 15 3 37 20 196 119 196 340 0 190-154 344-344 344h-93v125z" horiz-adv-x="1125" />

<glyph glyph-name="retweet-solid" unicode="&#xe878;" d="M531 38c35 0 63 27 63 62s-28 63-63 63h-218c-35 0-63 27-63 62v250h63c25 0 48 15 57 39s5 50-13 68l-125 125c-25 24-64 24-89 0l-125-125c-18-18-23-45-13-68s32-39 58-39l62 0 0-250c0-103 84-187 188-187h218z m63 625c-35 0-63-28-63-63s28-62 63-62l219 0c34 0 62-28 62-63l0-250h-62c-26 0-48-15-58-39s-5-50 13-68l125-125c25-24 64-24 89 0l125 125c18 18 23 45 13 68s-32 39-58 39l-62 0v250c0 104-84 188-188 188l-218 0z" horiz-adv-x="1125" />

<glyph glyph-name="right-from-bracket-solid" unicode="&#xe879;" d="M738 643l240-240c14-14 22-33 22-53s-8-39-22-53l-240-240c-12-13-29-19-47-19-36 0-66 29-66 66l0 121-250 0c-35 0-62 28-62 63l0 125c0 34 27 62 62 62l250 0 0 121c0 37 30 67 66 67 18 0 35-7 47-20z m-425 20l-125 0c-35 0-63-28-63-63l0-500c0-35 28-62 63-62l125 0c34 0 62-28 62-63s-28-63-62-63l-125 0c-104 0-188 84-188 188l0 500c0 104 84 188 188 188l125 0c34 0 62-28 62-63s-28-62-62-62z" horiz-adv-x="1000" />

<glyph glyph-name="right-left-solid" unicode="&#xe87a;" d="M63 663l625 0v125c0 25 15 48 38 57s50 5 68-13l188-188c12-11 18-27 18-44s-6-32-18-44l-188-187c-18-18-44-24-68-14s-38 33-38 58v125l-625 0c-35 0-63 27-63 62s28 63 63 63z m875-500c34 0 62-28 62-63s-28-62-62-62h-625v-126c0-25-16-48-39-57s-50-5-68 13l-188 188c-12 11-18 27-18 44s6 32 18 44l188 187c18 18 44 24 68 14s39-32 39-58l0-125h625z" horiz-adv-x="1000" />

<glyph glyph-name="right-long-solid" unicode="&#xe87b;" d="M653 41c18-7 37-3 51 9l281 266c10 9 15 21 15 34s-5 25-15 34l-281 266c-14 13-33 16-51 9s-28-25-28-43l0-141-562 0c-35 0-63-28-63-62l0-125c0-35 28-63 63-63l562 0 0-141c0-18 11-35 28-43z" horiz-adv-x="1000" />

<glyph glyph-name="rotate-solid" unicode="&#xe87c;" d="M279 571c122 121 318 122 440 2l-80-80c-14-14-18-34-10-52s24-28 43-28h233c0 0 0 0 0 0h17c26 0 47 20 47 46v250c0 19-12 37-29 44s-38 3-51-10l-82-82c-171 169-446 169-616-2-48-47-82-103-103-163-12-33 5-68 38-80s68 6 79 38c15 43 40 83 74 117z m-248-330v-15-2-233c0-19 12-37 29-44s38-3 51 10l82 82c171-169 446-169 616 2 48 47 83 103 104 163 11 33-6 68-38 80s-69-6-80-38c-15-43-39-83-74-117-121-122-318-122-440-2l80 80c14 14 18 34 11 52s-25 29-44 29h-233-2-15c-26 0-47-21-47-47z" horiz-adv-x="1000" />

<glyph glyph-name="rotate-left-solid" unicode="&#xe87d;" d="M95 413h-17c-26 0-47 20-47 46v250c0 19 12 37 29 44s38 3 51-10l82-82c171 169 446 169 616-2 171-170 171-447 0-618s-447-171-618 0c-25 24-25 64 0 88s64 25 88 0c122-122 320-122 442 0s122 320 0 442c-121 122-318 122-440 2l80-80c14-14 18-34 11-52s-25-28-44-28h-233z" horiz-adv-x="1000" />

<glyph glyph-name="rss-solid" unicode="&#xe87e;" d="M0 725c0 35 28 63 63 63 448 0 812-364 812-813 0-35-28-63-62-63s-63 28-63 63c0 380-308 688-687 688-35 0-63 27-63 62z m0-687a125 125 0 1 0 250 0 125 125 0 1 0-250 0z m63 500c310 0 562-252 562-563 0-35-28-63-62-63s-63 28-63 63c0 242-196 438-437 438-35 0-63 27-63 62s28 63 63 63z" horiz-adv-x="875" />

<glyph glyph-name="share-nodes-solid" unicode="&#xe87f;" d="M688 413c103 0 187 84 187 187s-84 188-187 188-188-84-188-188c0-8 0-16 1-23l-183-92c-34 33-80 53-130 53-104 0-188-84-188-188s84-187 188-187c50 0 96 19 130 52l183-92c-1-7-1-15-1-23 0-104 84-188 188-188s187 84 187 188-84 188-187 188c-51 0-97-20-131-53l-183 92c1 7 1 15 1 23s0 16-1 23l183 92c34-33 80-52 131-52z" horiz-adv-x="875" />

<glyph glyph-name="sim-card-solid" unicode="&#xe880;" d="M125 850h349c33 0 65-13 89-36l151-151c23-24 36-56 36-89v-599c0-69-56-125-125-125h-500c-69 0-125 56-125 125v750c0 69 56 125 125 125z m63-375c-35 0-63-28-63-62v-63h125v125h-62z m-63-312h156 188 156v125h-156-188-156v-125z m500 250c0 34-28 62-62 62h-63v-125h125v63z m-312 62v-125h125v125h-125z m250-500c34 0 62 28 62 63v62h-125v-125h63z m-250 125v-125h125v125h-125z m-188-62c0-35 28-63 63-63h62v125h-125v-62z" horiz-adv-x="750" />

<glyph glyph-name="sort-down-solid" unicode="&#xe881;" d="M357-69c-25-25-64-25-89 0l-250 250c-18 18-23 45-13 68s32 39 58 39h500c25 0 48-15 57-39s5-50-13-68l-250-250z" horiz-adv-x="625" />

<glyph glyph-name="sort-up-solid" unicode="&#xe882;" d="M357 769c-25 25-64 25-89 0l-250-250c-18-18-23-45-13-68s32-39 58-39h500c25 0 48 16 57 39s5 50-13 68l-250 250z" horiz-adv-x="625" />

<glyph glyph-name="star-half-solid" unicode="&#xe883;" d="M563 850c-24 0-46-14-56-35l-126-259-281-41c-23-3-43-20-50-42s-1-48 16-64l203-202-48-284c-4-24 6-47 25-61s45-16 66-5l251 134v859z m277-1000c2 0 4 0 6 0h-6z" horiz-adv-x="1125" />

<glyph glyph-name="star-half-stroke-solid" unicode="&#xe884;" d="M625 115l0 0 52-27 166-89-32 190-9 56 40 40 137 136-188 27-57 9-25 52-84 171 0 0v-565z m342-192c4-24-6-47-25-61s-45-16-66-5l-251 134-250-134c-21-11-47-9-66 5s-29 37-26 61l49 284-204 202c-17 16-23 41-15 64s27 39 50 42l280 41 126 259c11 21 32 35 56 35s46-14 57-35l125-259 281-41c23-3 43-20 50-42s1-48-15-64l-204-202 48-284z" horiz-adv-x="1250" />

<glyph glyph-name="toggle-off-solid" unicode="&#xe885;" d="M750 600c138 0 250-112 250-250s-112-250-250-250h-375c-138 0-250 112-250 250s112 250 250 250h375z m375-250c0 207-168 375-375 375h-375c-207 0-375-168-375-375s168-375 375-375h375c207 0 375 168 375 375z m-750-187a188 188 0 1 1 0 375 188 188 0 1 1 0-375z" horiz-adv-x="1125" />

<glyph glyph-name="tower-broadcast-solid" unicode="&#xe886;" d="M157 764c-21-50-32-106-32-164s11-113 32-164c13-32-3-68-35-81s-68 2-81 34c-26 65-41 137-41 211s15 146 41 211c13 32 49 47 81 35s48-50 35-82z m927 47c27-65 41-137 41-211s-14-146-41-211c-13-32-49-47-81-34s-48 49-35 81c21 51 32 106 32 164s-11 114-32 164c-13 32 3 68 35 82s68-3 81-35z m-396-211c0-46-26-87-63-108v-580c0-34-28-62-62-62s-63 28-63 62v580c-37 22-62 62-62 108 0 69 56 125 125 125s125-56 125-125z m-355 100c-13-30-20-64-20-100s7-69 20-100c14-32 0-69-32-82s-69 0-82 32c-20 46-31 97-31 150s11 104 31 150c14 32 50 46 82 32s46-50 32-82z m573 50c20-46 32-97 32-150s-12-104-32-150c-14-32-50-46-82-32s-46 50-32 82c13 31 21 64 21 100s-8 70-21 100c-14 32 0 69 32 82s69 0 82-32z" horiz-adv-x="1125" />

<glyph glyph-name="tower-cell-solid" unicode="&#xe887;" d="M122 846c-32 12-68-3-81-35-26-65-41-137-41-211s15-146 41-211c13-32 49-47 81-34s48 49 35 81c-21 51-32 106-32 164s11 114 32 164c13 32-3 68-35 82z m881 0c-32-14-48-50-35-82 21-50 32-106 32-164s-11-113-32-164c-13-32 3-68 35-81s68 2 81 34c27 65 41 137 41 211s-14 146-41 211c-13 32-49 47-81 35z m-339-319c15 21 24 46 24 73 0 69-57 125-125 125s-125-56-125-125c0-27 8-52 23-73l-268-589c-14-31 0-68 31-83s69 0 83 31l40 89h431l40-88c14-32 52-46 83-31s45 51 31 82l-268 589z m57-427h-317l28 63h261l28-63z m-158 349l73-161h-147l74 161z m-244 257c10 24 0 52-24 62s-52 0-62-24c-19-44-30-93-30-144s11-100 30-144c10-23 38-34 62-24s34 38 24 62c-14 32-22 68-22 106s8 74 22 106z m573 38c-10 23-38 34-62 24s-34-38-24-62c14-32 22-68 22-106s-8-74-22-106c-10-24 0-52 24-62s52 0 62 24c19 44 30 93 30 144s-11 100-30 144z" horiz-adv-x="1125" />

<glyph glyph-name="trademark-solid" unicode="&#xe888;" d="M675 638c-16 21-44 30-70 21s-42-32-42-59v-500c0-35 27-62 62-62s63 27 63 62v313l168-225c12-16 31-25 50-25s39 9 50 25l169 225v-313c0-35 28-62 63-62s62 27 62 62v500c0 27-17 51-43 59s-53 0-69-21l-232-309-231 309z m-675-38c0-35 28-62 63-62h125v-438c0-35 27-62 62-62s63 27 63 62v438h125c34 0 62 27 62 62s-28 63-62 63h-375c-35 0-63-28-63-63z" horiz-adv-x="1250" />

<glyph glyph-name="trash-arrow-up-solid" unicode="&#xe889;" d="M320 850h235c24 0 45-13 56-35l14-27h188c34 0 62-28 62-63s-28-62-62-62h-750c-35 0-63 27-63 62s28 63 63 63h187l14 27c11 22 32 35 56 35z m-257-250h750l-42-662c-3-50-44-88-93-88h-480c-50 0-91 38-94 88l-41 662z m375-125c-13 0-25-5-34-14l-156-156c-18-18-18-48 0-66s48-18 66 0l76 76v-262c0-26 21-47 47-47s47 21 47 47v262l76-76c19-18 48-18 67 0s18 48 0 66l-157 156c-8 9-20 14-33 14z" horiz-adv-x="875" />

<glyph glyph-name="trash-can-solid" unicode="&#xe88a;" d="M264 815c11 22 32 35 56 35h235c24 0 45-13 56-35l14-27h188c34 0 62-28 62-63s-28-62-62-62h-750c-35 0-63 27-63 62s28 63 63 63h187l14 27z m-201-215h750v-625c0-69-57-125-125-125h-500c-69 0-125 56-125 125v625z m187-125c-17 0-31-14-31-31v-438c0-17 14-31 31-31s31 14 31 31v438c0 17-14 31-31 31z m188 0c-18 0-32-14-32-31v-438c0-17 14-31 32-31s31 14 31 31v438c0 17-14 31-31 31z m187 0c-17 0-31-14-31-31v-438c0-17 14-31 31-31s31 14 31 31v438c0 17-14 31-31 31z" horiz-adv-x="875" />

<glyph glyph-name="trash-can-arrow-up-solid" unicode="&#xe88b;" d="M320 850h235c24 0 45-13 56-35l14-27h188c34 0 62-28 62-63s-28-62-62-62h-750c-35 0-63 27-63 62s28 63 63 63h187l14 27c11 22 32 35 56 35z m-257-250h750v-625c0-69-57-125-125-125h-500c-69 0-125 56-125 125v625z m375-125c-13 0-25-5-34-14l-156-156c-18-18-18-48 0-66s48-18 66 0l76 76v-262c0-26 21-47 47-47s47 21 47 47v262l76-76c19-18 48-18 67 0s18 48 0 66l-157 156c-8 9-20 14-33 14z" horiz-adv-x="875" />

<glyph glyph-name="triangle-exclamation-solid" unicode="&#xe88c;" d="M500 788c28 0 53-15 67-39l422-719c15-24 15-54 1-78s-40-40-68-40h-844c-28 0-54 15-68 40s-13 54 1 78l422 719c14 24 39 39 67 39z m0-250c-26 0-47-21-47-47v-219c0-26 21-47 47-47s47 21 47 47v219c0 26-21 47-47 47z m63-438a63 63 0 1 1-125 0 63 63 0 1 1 125 0z" horiz-adv-x="1000" />

<glyph glyph-name="turn-down-solid" unicode="&#xe88d;" d="M684 197c7-17 4-37-9-51l-266-281c-9-10-21-15-34-15s-25 5-34 15l-266 281c-12 14-16 34-9 51s25 28 43 28h172l0 375c0 35-28 63-62 63h-156c-35 0-63 27-63 62v63c0 34 28 62 63 62l156 0c138 0 250-112 250-250l0-375h172c18 0 35-11 43-28z" horiz-adv-x="750" />

<glyph glyph-name="turn-up-solid" unicode="&#xe88e;" d="M684 503c7 18 4 37-9 51l-266 281c-9 10-21 15-34 15s-25-5-34-15l-266-281c-12-14-16-33-9-51s25-28 43-28h172l0-375c0-35-28-62-62-62h-156c-35 0-63-28-63-63v-63c0-34 28-62 63-62l156 0c138 0 250 112 250 250l0 375h172c18 0 35 11 43 28z" horiz-adv-x="750" />

<glyph glyph-name="underline-solid" unicode="&#xe88f;" d="M31 725c0 35 28 63 63 63h187c35 0 63-28 63-63s-28-62-63-62h-31v-250c0-104 84-188 188-188s187 84 187 188v250h-31c-35 0-63 27-63 62s28 63 63 63h187c35 0 63-28 63-63s-28-62-63-62h-31v-250c0-173-140-313-312-313s-313 140-313 313v250h-31c-35 0-63 27-63 62z m-31-750c0 35 28 63 63 63h750c34 0 62-28 62-63s-28-63-62-63h-750c-35 0-63 28-63 63z" horiz-adv-x="875" />

<glyph glyph-name="universal-access-solid" unicode="&#xe890;" d="M0 350a500 500 0 1 0 1000 0 500 500 0 1 0-1000 0z m315 168c-23 10-51-1-61-24s1-52 25-62l23-10c34-14 69-25 104-32v-98c0-8-1-16-4-24l-56-168c-8-25 5-52 30-60s51 5 59 30l48 143c3 7 9 12 17 12s15-5 17-12l48-143c8-25 35-38 59-30s38 35 30 60l-56 168c-3 8-4 16-4 24v98c36 7 71 17 105 32l23 10c24 10 35 38 25 61s-38 35-62 25l-23-10c-51-22-106-33-162-33s-110 11-161 33l-24 10z m185 20a78 78 0 1 1 0 156 78 78 0 1 1 0-156z" horiz-adv-x="1000" />

<glyph glyph-name="unlock-keyhole-solid" unicode="&#xe891;" d="M438 725c-87 0-157-70-157-156v-94h469c69 0 125-56 125-125v-375c0-69-56-125-125-125h-625c-69 0-125 56-125 125v375c0 69 56 125 125 125h31v94c0 155 126 281 282 281 112 0 209-66 254-161 14-31 1-68-30-83s-69-1-83 30c-25 53-79 89-141 89z m62-625c35 0 63 28 63 63s-28 62-63 62h-125c-35 0-62-28-62-62s27-63 62-63h125z" horiz-adv-x="875" />

<glyph glyph-name="up-down-solid" unicode="&#xe892;" d="M284 835c-9 10-21 15-34 15s-25-5-34-15l-203-219c-13-13-17-33-9-50s24-28 43-28h109v-375h-109c-19 0-36-12-43-29s-4-36 9-50l203-219c8-10 21-15 34-15s25 5 34 15l204 219c12 14 16 33 8 50s-24 29-43 29h-109v375h109c19 0 36 11 43 28s4 37-8 50l-204 219z" horiz-adv-x="500" />

<glyph glyph-name="up-down-left-right-solid" unicode="&#xe893;" d="M544 832c-24 24-64 24-88 0l-125-125c-18-18-24-45-14-68s33-39 58-39h63v-188h-188v63c0 25-15 48-39 58s-50 4-68-14l-125-125c-24-24-24-64 0-88l125-125c18-18 45-23 68-14s39 33 39 58v63h188v-188h-63c-25 0-48-15-58-39s-4-50 14-68l125-125c24-24 64-24 88 0l125 125c18 18 23 45 14 68s-33 39-58 39h-62v188h187v-63c0-25 15-48 39-58s50-4 68 14l125 125c24 24 24 64 0 88l-125 125c-18 18-45 23-68 14s-39-33-39-58v-63h-187v188h62c25 0 48 15 58 39s4 50-14 68l-125 125z" horiz-adv-x="1000" />

<glyph glyph-name="up-long-solid" unicode="&#xe894;" d="M621 503c8 18 4 37-9 51l-265 281c-9 10-22 15-34 15s-26-5-34-15l-266-281c-13-14-17-33-9-51s24-28 43-28h141l0-563c0-34 27-62 62-62h125c35 0 63 28 63 62l0 563h140c19 0 36 11 43 28z" horiz-adv-x="625" />

<glyph glyph-name="up-right-and-down-left-from-center-solid" unicode="&#xe895;" d="M672 850h281c26 0 47-21 47-47v-281c0-19-11-36-29-43s-38-4-51 10l-76 76-170-170c-18-18-48-18-66 0l-63 62c-18 19-18 49 0 67l170 170-76 76c-14 13-18 34-10 51s24 29 43 29z m-344-1000h-281c-26 0-47 21-47 47v281c0 19 11 36 29 44s38 3 51-11l76-76 170 170c19 18 48 18 66 0l63-62c18-19 18-48 0-67l-170-170 76-76c14-13 18-33 10-51s-24-29-43-29z" horiz-adv-x="1000" />

<glyph glyph-name="up-right-from-square-solid" unicode="&#xe896;" d="M688 850c-26 0-48-15-58-39s-5-50 13-68l81-80-331-331c-24-25-24-64 0-89s64-24 89 0l331 331 80-81c18-18 45-23 69-13s38 32 38 58v250c0 34-28 62-62 62h-250z m-532-62c-86 0-156-70-156-157v-625c0-86 70-156 156-156h625c87 0 157 70 157 156v219c0 35-28 63-63 63s-62-28-62-63v-219c0-17-15-31-32-31h-625c-17 0-31 14-31 31v625c0 17 14 32 31 32h219c35 0 63 27 63 62s-28 63-63 63h-219z" horiz-adv-x="1000" />

<glyph glyph-name="user-check-solid" unicode="&#xe897;" d="M188 600a250 250 0 1 0 500 0 250 250 0 1 0-500 0z m-188-692c0 192 156 348 348 348h179c192 0 348-156 348-348 0-32-26-58-58-58h-759c-32 0-58 26-58 58z m1221 596l-250-250c-19-18-48-18-66 0l-125 125c-19 19-19 48 0 67s48 18 66 0l92-92 216 217c19 18 48 18 67 0s18-48 0-66z" horiz-adv-x="1250" />

<glyph glyph-name="user-clock-solid" unicode="&#xe898;" d="M438 850a250 250 0 1 0 0-500 250 250 0 1 0 0 500z m-90-594h179c40 0 79-7 115-19-11-33-17-69-17-106 0-116 58-219 146-281h-713c-32 0-58 26-58 58 0 192 156 348 348 348z m340-125a281 281 0 1 0 562 0 281 281 0 1 0-562 0z m281 157c-17 0-31-15-31-32v-125c0-17 14-31 31-31h94c17 0 31 14 31 31s-14 32-31 32h-63v93c0 17-14 32-31 32z" horiz-adv-x="1250" />

<glyph glyph-name="user-gear-solid" unicode="&#xe899;" d="M438 850a250 250 0 1 0 0-500 250 250 0 1 0 0 500z m-90-594h179c23 0 46-2 67-6-4-36 15-70 43-88-33-20-52-61-39-104 8-25 18-50 32-73s29-45 47-65c31-33 78-36 112-17v-1c0-18 5-37 16-52h-747c-32 0-58 26-58 58 0 192 156 348 348 348z m504 168c0 14 8 26 22 29 20 4 42 7 64 7s43-3 63-7c14-3 22-15 22-29v-60c16-7 31-15 44-25l49 28c12 7 26 5 36-5 15-15 28-33 39-53s20-40 26-60c5-13-2-27-14-34l-48-28c0-8 1-16 1-24s0-16-1-24l48-28c12-7 18-21 14-34-6-21-15-41-26-60s-24-38-39-54c-10-10-25-11-36-4l-49 28c-13-10-28-19-44-25l0-60c0-14-8-26-22-29-20-5-42-7-63-7s-44 2-64 7c-14 3-22 15-22 29v60c-16 6-31 15-44 25l-49-28c-11-7-26-5-36 5-15 15-28 33-39 53s-20 40-26 60c-4 13 2 27 14 34l48 28c-1 8-1 16-1 24s0 16 1 24l-48 28c-12 7-18 21-15 34 7 21 16 41 27 60s24 38 39 54c9 10 24 11 36 4l49-28c13 10 28 19 44 26v59z m179-261a94 94 0 1 1-187 0 94 94 0 1 1 187 0z" horiz-adv-x="1250" />

<glyph glyph-name="user-group-solid" unicode="&#xe89a;" d="M188 600a250 250 0 1 0 500 0 250 250 0 1 0-500 0z m-188-692c0 192 156 348 348 348h179c192 0 348-156 348-348 0-32-26-58-58-58h-759c-32 0-58 26-58 58z m1190-58h-269c10 18 17 40 17 62v16c0 119-53 225-137 297 5 0 9 0 14 0h120c174 0 315-141 315-315 0-33-27-60-60-60z m-346 500c-61 0-115 25-155 64 38 52 61 117 61 186 0 52-13 102-36 145 37 27 81 43 130 43 121 0 219-98 219-219s-98-219-219-219z" horiz-adv-x="1250" />

<glyph glyph-name="user-large-solid" unicode="&#xe89b;" d="M500 288a281 281 0 1 1 0 562 281 281 0 1 1 0-562z m-185-63c-174 0-315-141-315-315 0-33 27-60 60-60h880c33 0 60 27 60 60 0 174-141 315-315 315h-370z" horiz-adv-x="1000" />

<glyph glyph-name="user-large-slash-solid" unicode="&#xe89c;" d="M76 840c-20 16-50 12-66-8s-12-50 8-66l1156-906c21-16 50-12 66 8s12 50-8 66l-486 381c95 45 160 142 160 254 0 155-126 281-281 281-136 0-249-96-276-224l-273 214z m989-990h-34l-476 375h-115c-174 0-315-141-315-315 0-33 27-60 60-60h880l1 0z" horiz-adv-x="1250" />

<glyph glyph-name="user-lock-solid" unicode="&#xe89d;" d="M438 350a250 250 0 1 1 0 500 250 250 0 1 1 0-500z m-90-94c-192 0-348-156-348-348 0-32 26-58 58-58h709c-11 18-17 40-17 62v251c0 4 0 8 1 12-61 51-139 81-224 81h-179z m683 125c35 0 63-28 63-62v-94h-125v94c0 34 28 62 62 62z m-156-62v-94c-35 0-62-28-62-62v-251c0-34 27-62 62-62h313c34 0 62 28 62 62v251c0 34-28 62-62 62v94c0 86-70 156-157 156s-156-70-156-156z" horiz-adv-x="1250" />

<glyph glyph-name="user-pen-solid" unicode="&#xe89e;" d="M438 350a250 250 0 1 1 0 500 250 250 0 1 1 0-500z m-90-94c-192 0-348-156-348-348 0-32 26-58 58-58h573c-7 17-8 36-3 54l29 118c6 22 17 42 33 58l79 78c-63 61-148 98-242 98h-179z m851 134c-31 30-80 30-111 0l-57-58 139-138 57 57c30 30 30 80 0 111l-28 28z m-465-354c-8-8-13-18-16-30l-29-117c-3-11 0-22 8-30s19-11 29-8l118 29c11 3 21 9 29 17l252 252-138 139-253-252z" horiz-adv-x="1250" />

<glyph glyph-name="user-shield-solid" unicode="&#xe89f;" d="M438 350a250 250 0 1 1 0 500 250 250 0 1 1 0-500z m-90-94c-192 0-348-156-348-348 0-32 26-58 58-58h759c4 0 7 0 10 1-149 108-195 275-201 391-31 9-65 14-99 14h-179z m603 153l-234-94c-18-7-29-24-29-43 0-124 50-330 263-419 11-4 24-4 36 0 212 89 263 295 263 419 0 19-12 36-29 43l-235 94c-11 5-23 5-35 0z m204-168c-7-99-53-228-186-293v367l186-74z" horiz-adv-x="1250" />

<glyph glyph-name="user-slash-solid" unicode="&#xe8a0;" d="M76 840c-20 16-50 12-66-8s-12-50 8-66l1156-906c21-16 50-12 66 8s12 50-8 66l-542 425c107 28 185 125 185 241 0 138-112 250-250 250-136 0-247-109-250-244l-299 234z m440-584c-183-10-328-162-328-348 0-32 26-58 58-58h759c7 0 14 1 21 4l-510 402z" horiz-adv-x="1250" />

<glyph glyph-name="user-tag-solid" unicode="&#xe8a1;" d="M438 350a250 250 0 1 1 0 500 250 250 0 1 1 0-500z m-90-94c-192 0-348-156-348-348 0-32 26-58 58-58h759c20 0 37 10 47 24l-193 194c-30 29-46 69-46 110v64c-31 9-64 14-98 14h-179z m402 157c-35 0-62-28-62-63v-161c0-34 13-66 36-89l210-210c36-36 96-36 132 0l144 144c36 36 36 96 0 132l-210 210c-23 23-55 37-88 37h-162z m47-157a47 47 0 1 0 94 0 47 47 0 1 0-94 0z" horiz-adv-x="1250" />

<glyph glyph-name="user-xmark-solid" unicode="&#xe8a2;" d="M188 600a250 250 0 1 0 500 0 250 250 0 1 0-500 0z m-188-692c0 192 156 348 348 348h179c192 0 348-156 348-348 0-32-26-58-58-58h-759c-32 0-58 26-58 58z m920 663c18 18 48 18 66 0l92-92 92 92c18 18 48 18 66 0s18-48 0-66l-92-92 92-92c18-18 18-48 0-66s-48-19-66 0l-92 92-92-92c-18-19-48-19-66 0s-18 48 0 66l92 92-92 92c-18 18-18 48 0 66z" horiz-adv-x="1250" />

<glyph glyph-name="users-slash-solid" unicode="&#xe8a3;" d="M76 840c-20 16-50 12-66-8s-12-50 8-66l1156-906c21-16 50-12 66 8s12 50-8 66l-371 291h347c23 0 42 19 42 42 0 115-93 208-208 208h-84c-31 0-60-7-87-19 3-14 4-29 4-43 0-59-20-114-55-157l-49 39c26 32 42 73 42 118 0 103-84 187-188 187-61 0-115-29-149-74l-79 63c25 27 41 64 41 105 0 86-70 156-157 156-54 0-101-27-130-69l-75 59z m132-365c-115 0-208-93-208-208 0-23 19-42 42-42h416c1 0 1 0 2 0-40 36-69 84-80 138l-142 112h-30z m302-312c-143 0-260-117-260-261 0-29 23-52 52-52h646c20 0 38 12 47 29l-360 284h-125z m490 375a156 156 0 1 1 0 312 156 156 0 1 1 0-312z" horiz-adv-x="1250" />

<glyph glyph-name="users-viewfinder-solid" unicode="&#xe8a4;" d="M94 756h172c26 0 47 21 47 47s-21 47-47 47h-203c-35 0-63-28-63-62v-204c0-26 21-46 47-46s47 20 47 46v172z m249-343a94 94 0 1 1 0 187 94 94 0 1 1 0-187z m-51-63c-58 0-104-47-104-104 0-29 23-52 52-52h109c16 66 64 120 128 144-15 8-32 12-50 12h-135z m718-156c29 0 53 23 53 52 0 58-47 104-105 104h-135c-18 0-35-4-50-12 64-24 112-78 128-144h109z m-174 0c-17 47-59 83-109 92-8 1-16 2-24 2h-156c-8 0-16-1-24-2-50-9-92-45-109-92-5-15-8-31-8-47 0-26 21-47 47-47h344c26 0 47 21 47 47 0 16-3 32-8 47z m70 219a94 94 0 1 1 0 187 94 94 0 1 1 0-187z m-156 62a125 125 0 1 1-250 0 125 125 0 1 1 250 0z m234 281h172v-172c0-26 21-46 47-46s47 20 47 46v204c0 34-28 62-62 62h-204c-26 0-46-21-46-47s20-47 46-47z m-890-812v172c0 26-21 47-47 47s-47-21-47-47v-204c0-34 28-62 63-62h203c26 0 47 21 47 47s-21 47-47 47h-172z m890 0c-26 0-46-21-46-47s20-47 46-47h204c34 0 62 28 62 62v204c0 26-21 47-47 47s-47-21-47-47v-172h-172z" horiz-adv-x="1250" />

<glyph glyph-name="volume-high-solid" unicode="&#xe8a5;" d="M1042 787c127-104 208-261 208-437s-81-334-208-437c-20-16-49-13-66 7s-13 50 7 66c106 86 173 217 173 364s-67 278-173 364c-20 16-23 46-7 66s46 23 66 7z m-118-146c84-69 139-174 139-291s-55-222-139-291c-20-16-50-13-66 7s-13 49 7 66c63 51 104 130 104 218s-41 167-104 218c-20 17-23 46-7 66s46 23 66 7z m-118-145c42-35 69-87 69-146s-27-111-69-145c-20-17-50-14-66 6s-13 50 7 66c21 18 34 44 34 73s-13 56-34 73c-20 16-23 46-7 66s46 23 66 7z m-218 286c23-10 37-32 37-57v-750c0-25-14-47-37-57s-49-6-67 10l-264 235h-132c-69 0-125 56-125 125v125c0 68 56 125 125 125h132l264 234c18 16 45 20 67 10z" horiz-adv-x="1250" />

<glyph glyph-name="volume-low-solid" unicode="&#xe8a6;" d="M588 782c23-10 37-32 37-57v-750c0-25-14-47-37-57s-49-6-67 10l-264 235h-132c-69 0-125 56-125 125v125c0 68 56 125 125 125h132l264 234c18 16 45 20 67 10z m218-286c42-35 69-87 69-146s-27-111-69-145c-20-17-50-14-66 6s-13 50 7 66c21 18 34 44 34 73s-13 56-34 73c-20 16-23 46-7 66s46 23 66 7z" horiz-adv-x="875" />

<glyph glyph-name="volume-off-solid" unicode="&#xe8a7;" d="M625 725c0 25-14 47-37 57s-49 6-67-10l-264-234h-132c-69 0-125-57-125-125v-125c0-69 56-125 125-125h132l264-235c18-16 45-20 67-10s37 32 37 57v750z" horiz-adv-x="625" />

<glyph glyph-name="volume-xmark-solid" unicode="&#xe8a8;" d="M588 782c23-10 37-32 37-57v-750c0-25-14-47-37-57s-49-6-67 10l-264 235h-132c-69 0-125 56-125 125v125c0 68 56 125 125 125h132l264 234c18 16 45 20 67 10z m242-258l108-108 107 108c18 18 48 18 66 0s19-48 0-66l-107-108 107-107c19-19 19-48 0-66s-48-19-66 0l-107 107-108-107c-18-19-48-19-66 0s-18 48 0 66l107 107-107 108c-18 18-18 48 0 66s48 18 66 0z" horiz-adv-x="1125" />

<glyph glyph-name="x-solid" unicode="&#xe8a9;" d="M736 685c22 27 18 66-8 88s-66 19-88-8l-265-317-264 317c-22 27-62 30-88 8s-31-61-8-88l279-335-279-335c-23-27-19-66 8-88s66-19 88 8l264 317 265-317c22-27 61-30 88-8s30 61 8 88l-280 335 280 335z" horiz-adv-x="750" />

<glyph glyph-name="microphone-solid" unicode="&#xe8aa;" d="M375 850c-103 0-187-84-187-187v-313c0-103 84-187 187-187s188 84 188 187v313c0 103-84 187-188 187z m-250-422c0 26-21 47-47 47s-47-21-47-47v-78c0-174 130-318 297-341v-65h-94c-26 0-46-21-46-47s20-47 46-47h141 141c26 0 47 21 47 47s-21 47-47 47h-94v65c168 23 297 167 297 341v78c0 26-21 47-47 47s-47-21-47-47v-78c0-138-112-250-250-250s-250 112-250 250v78z" horiz-adv-x="750" />

<glyph glyph-name="microphone-slash-solid" unicode="&#xe8ab;" d="M76 840c-20 16-50 12-66-8s-12-50 8-66l1156-906c21-16 50-12 66 8s12 50-8 66l-310 243c30 51 47 110 47 173v78c0 26-21 47-47 47s-47-21-47-47v-78c0-41-10-80-28-115l-34 28v400c0 103-84 187-188 187s-187-84-187-187v-107l-362 284z m596-831c40 6 77 18 112 36l-84 66c-24-7-49-11-75-11-138 0-250 112-250 250v17l-92 73c-1-4-2-8-2-12v-78c0-174 130-318 297-341v-65h-94c-26 0-46-21-46-47s20-47 46-47h141 141c26 0 47 21 47 47s-21 47-47 47h-94v65z" horiz-adv-x="1250" />

<glyph glyph-name="chevron-down-solid" unicode="&#xe8ac;" d="M456 56c24-25 64-25 88 0l375 375c25 24 25 64 0 88s-64 25-88 0l-331-330-331 330c-24 25-64 25-88 0s-25-64 0-88l375-375z" horiz-adv-x="1000" />

<glyph glyph-name="images-solid" unicode="&#xe8ad;" d="M313 788c-69 0-125-57-125-125v-438c0-69 56-125 125-125h687c69 0 125 56 125 125v438c0 68-56 125-125 125h-687z m460-209l188-281c10-15 11-33 2-48s-24-25-41-25h-281-94-156c-18 0-35 10-43 27s-5 35 6 49l125 156c9 12 22 18 37 18s27-6 36-18l34-42 109 164c9 13 24 21 39 21s31-8 39-21z m-398 21a63 63 0 1 0 125 0 63 63 0 1 0-125 0z m-281 16c0 26-21 47-47 47s-47-21-47-47v-438c0-147 119-266 266-266h625c26 0 47 21 47 47s-21 47-47 47h-625c-95 0-172 77-172 172v438z" horiz-adv-x="1125" />

<glyph glyph-name="images-regular" unicode="&#xe8ae;" d="M313 694h687c17 0 31-14 31-31v-438c0-17-14-31-31-31h-41l-201 307c-9 13-23 21-39 21s-31-8-39-21l-102-156-25 33c-8 12-22 19-38 19s-28-7-37-19l-135-184h-30c-18 0-32 14-32 31v438c0 17 14 31 32 31z m-125-31v-438c0-69 56-125 125-125h687c69 0 125 56 125 125v438c0 68-56 125-125 125h-687c-69 0-125-57-125-125z m-94-47c0 26-21 47-47 47s-47-21-47-47v-438c0-147 119-266 266-266h625c26 0 47 21 47 47s-21 47-47 47h-625c-95 0-172 77-172 172v438z m406-47a63 63 0 1 1-125 0 63 63 0 1 1 125 0z" horiz-adv-x="1125" />

<glyph glyph-name="not-equal-solid" unicode="&#xe8af;" d="M722 777c29-19 37-58 18-87l-82-121h123c35 0 63-28 63-63s-28-62-63-62h-206l-125-188h331c35 0 63-28 63-62s-28-63-63-63h-414l-127-191c-20-28-59-36-87-17s-37 58-18 87l82 121h-123c-35 0-63 28-63 63s28 62 63 62h206l125 188h-331c-35 0-63 28-63 62s28 63 63 63h414l128 191c19 28 58 36 86 17z" horiz-adv-x="875" />

<glyph glyph-name="unlock-solid" unicode="&#xe8b0;" d="M281 569c0 86 70 156 157 156 62 0 116-36 141-89 15-31 52-45 83-30s44 52 30 83c-45 95-142 161-254 161-156 0-282-126-282-281v-94h-31c-69 0-125-56-125-125v-375c0-69 56-125 125-125h625c69 0 125 56 125 125v375c0 69-56 125-125 125h-469v94z" horiz-adv-x="875" />

<glyph glyph-name="receipt-solid" unicode="&#xe8b1;" d="M27 846c17 7 37 5 50-7l79-68 79 68c18 15 44 15 61 0l79-68 79 68c18 15 44 15 61 0l79-68 79 68c14 12 33 14 50 7s27-24 27-43v-906c0-19-11-35-27-43s-36-5-50 7l-79 68-79-68c-18-15-44-15-61 0l-79 68-79-68c-17-15-43-15-61 0l-79 68-79-68c-13-12-33-14-50-7s-27 24-27 43v906c0 19 11 35 27 43z m161-277c-18 0-32-14-32-31s14-32 32-32h375c17 0 31 14 31 32s-14 31-31 31h-375z m-32-406c0-18 14-32 32-32h375c17 0 31 14 31 32s-14 31-31 31h-375c-18 0-32-14-32-31z m32 218c-18 0-32-14-32-31s14-31 32-31h375c17 0 31 14 31 31s-14 31-31 31h-375z" horiz-adv-x="750" />

<glyph glyph-name="keyboard-regular" unicode="&#xe8b2;" d="M125 631c-17 0-31-14-31-31v-500c0-17 14-31 31-31h875c17 0 31 14 31 31v500c0 17-14 31-31 31h-875z m-125-31c0 69 56 125 125 125h875c69 0 125-56 125-125v-500c0-69-56-125-125-125h-875c-69 0-125 56-125 125v500z m344-375h437c17 0 32-14 32-31v-31c0-18-15-32-32-32h-437c-17 0-31 14-31 32v31c0 17 14 31 31 31z m-141 141c0 17 14 31 31 31h32c17 0 31-14 31-31v-32c0-17-14-31-31-31h-32c-17 0-31 14-31 31v32z m31 187h32c17 0 31-14 31-31v-31c0-18-14-32-31-32h-32c-17 0-31 14-31 32v31c0 17 14 31 31 31z m125-187c0 17 14 31 32 31h31c17 0 31-14 31-31v-32c0-17-14-31-31-31h-31c-18 0-32 14-32 31v32z m32 187h31c17 0 31-14 31-31v-31c0-18-14-32-31-32h-31c-18 0-32 14-32 32v31c0 17 14 31 32 31z m125-187c0 17 14 31 31 31h31c17 0 31-14 31-31v-32c0-17-14-31-31-31h-31c-17 0-31 14-31 31v32z m31 187h31c17 0 31-14 31-31v-31c0-18-14-32-31-32h-31c-17 0-31 14-31 32v31c0 17 14 31 31 31z m125-187c0 17 14 31 31 31h31c18 0 32-14 32-31v-32c0-17-14-31-32-31h-31c-17 0-31 14-31 31v32z m31 187h31c18 0 32-14 32-31v-31c0-18-14-32-32-32h-31c-17 0-31 14-31 32v31c0 17 14 31 31 31z m125-187c0 17 14 31 31 31h32c17 0 31-14 31-31v-32c0-17-14-31-31-31h-32c-17 0-31 14-31 31v32z m31 187h32c17 0 31-14 31-31v-31c0-18-14-32-31-32h-32c-17 0-31 14-31 32v31c0 17 14 31 31 31z" horiz-adv-x="1125" />

<glyph glyph-name="keyboard-solid" unicode="&#xe8b3;" d="M125 725c-69 0-125-56-125-125v-500c0-69 56-125 125-125h875c69 0 125 56 125 125v500c0 69-56 125-125 125h-875z m31-125h63c17 0 31-14 31-31v-63c0-17-14-31-31-31h-63c-17 0-31 14-31 31v63c0 17 14 31 31 31z m-31-219c0 17 14 32 31 32h63c17 0 31-15 31-32v-62c0-17-14-31-31-31h-63c-17 0-31 14-31 31v62z m31-156h63c17 0 31-14 31-31v-63c0-17-14-31-31-31h-63c-17 0-31 14-31 31v63c0 17 14 31 31 31z m157 344c0 17 14 31 31 31h62c17 0 32-14 32-31v-63c0-17-15-31-32-31h-62c-17 0-31 14-31 31v63z m31-156h62c17 0 32-15 32-32v-62c0-17-15-31-32-31h-62c-17 0-31 14-31 31v62c0 17 14 32 31 32z m-31-219c0 17 14 31 31 31h437c17 0 32-14 32-31v-63c0-17-15-31-32-31h-437c-17 0-31 14-31 31v63z m218 406h63c17 0 31-14 31-31v-63c0-17-14-31-31-31h-63c-17 0-31 14-31 31v63c0 17 14 31 31 31z m-31-219c0 17 14 32 31 32h63c17 0 31-15 31-32v-62c0-17-14-31-31-31h-63c-17 0-31 14-31 31v62z m219 219h62c17 0 32-14 32-31v-63c0-17-15-31-32-31h-62c-17 0-31 14-31 31v63c0 17 14 31 31 31z m-31-219c0 17 14 32 31 32h62c17 0 32-15 32-32v-62c0-17-15-31-32-31h-62c-17 0-31 14-31 31v62z m218 219h63c17 0 31-14 31-31v-63c0-17-14-31-31-31h-63c-17 0-31 14-31 31v63c0 17 14 31 31 31z m-31-219c0 17 14 32 31 32h63c17 0 31-15 31-32v-62c0-17-14-31-31-31h-63c-17 0-31 14-31 31v62z m31-156h63c17 0 31-14 31-31v-63c0-17-14-31-31-31h-63c-17 0-31 14-31 31v63c0 17 14 31 31 31z" horiz-adv-x="1125" />

<glyph glyph-name="clone-solid" unicode="&#xe8b4;" d="M563-25h-438v438h125v125h-125c-69 0-125-57-125-125v-438c0-69 56-125 125-125h438c68 0 125 56 125 125v125h-125v-125z m-125 188h437c69 0 125 56 125 125v437c0 69-56 125-125 125h-437c-69 0-125-56-125-125v-437c0-69 56-125 125-125z" horiz-adv-x="1000" />

<glyph glyph-name="clone-regular" unicode="&#xe8b5;" d="M125-56h438c17 0 31 14 31 31v125h94v-125c0-69-57-125-125-125h-438c-69 0-125 56-125 125v438c0 68 56 125 125 125h125v-94h-125c-17 0-31-14-31-31v-438c0-17 14-31 31-31z m313 312h437c17 0 31 14 31 32v437c0 17-14 31-31 31h-437c-18 0-32-14-32-31v-437c0-18 14-32 32-32z m-125 32v437c0 69 56 125 125 125h437c69 0 125-56 125-125v-437c0-69-56-125-125-125h-437c-69 0-125 56-125 125z" horiz-adv-x="1000" />

<glyph glyph-name="eraser-solid" unicode="&#xe8b6;" d="M568 738l-456-456c-49-49-49-128 0-176l156-157c24-23 56-36 89-36h206 18 419c35 0 63 28 63 62s-28 63-63 63h-242l255 255c49 49 49 128 0 177l-268 268c-49 49-128 49-177 0z m13-700h-18l-206 0-157 156 244 243 268-268-131-131z" horiz-adv-x="1125" />

<glyph glyph-name="recycle-solid" unicode="&#xe8b7;" d="M341 762c34 55 95 88 159 88s125-33 159-88l75-121 53 31c16 9 37 8 52-3s22-31 17-50l-46-171c-7-25-32-39-57-33l-171 46c-18 5-32 20-34 39s6 37 23 47l55 32-73 117c-12 18-31 29-53 29s-41-11-53-29l-34-55c-18-29-56-38-85-20-30 18-39 57-21 86l34 55z m498-404c29 18 67 8 85-20l48-77c18-29 28-63 28-98 1-104-83-188-187-188l-188 0v-63c0-18-11-36-29-43s-38-3-51 10l-125 125c-18 19-18 48 0 67l125 125c13 13 34 17 51 10s29-25 29-44v-62l188 0c34 0 62 28 62 62 0 12-3 23-9 33l-48 76c-19 30-9 69 21 87z m-712 61l-57 32c-16 10-25 28-23 47s16 34 35 39l170 46c25 6 51-9 58-34l46-170c4-18-2-38-17-49s-36-13-52-4l-52 30-101-161c-6-10-9-21-9-32 0-35 28-63 62-63l63 0c35 0 63-28 63-62s-28-63-63-63l-63 0c-104 0-188 84-187 188 0 35 10 69 29 98l98 158z" horiz-adv-x="1000" />

<glyph glyph-name="user-tie-solid" unicode="&#xe8b8;" d="M438 350a250 250 0 1 0 0 500 250 250 0 1 0 0-500z m-30-202l-36 61c-12 21 3 47 27 47h39 38c24 0 39-26 27-47l-37-61 66-242 70 287c4 16 19 27 35 22 137-34 238-158 238-305 0-33-27-60-60-60h-257c-4 0-8 1-12 2l1-2h-219l1 2c-4-1-8-2-12-2h-257c-33 0-60 27-60 60 0 147 101 271 238 305 16 4 31-6 35-22l70-287 66 242z" horiz-adv-x="875" />

<glyph glyph-name="fingerprint-solid" unicode="&#xe8b9;" d="M94 350c0 224 182 406 406 406 123 0 234-55 308-141 17-20 47-22 66-5s22 46 5 66c-91 106-227 174-379 174-276 0-500-224-500-500v-78c0-26 21-47 47-47s47 21 47 47v78z m895 103c-5 26-30 42-55 37s-42-31-36-56c5-27 8-55 8-84v-78c0-26 21-47 47-47s47 21 47 47v78c0 35-3 70-10 103z m-489 241c-37 0-73-6-106-17-30-10-37-46-17-70 14-16 37-21 58-16 21 6 42 9 65 9 138 0 250-112 250-250v-49c0-49-3-98-9-147-3-28 19-54 48-54 23 0 42 17 45 40 7 53 10 107 10 161v49c0 190-154 344-344 344z m-206-134c-17 20-49 22-66 0-45-58-72-131-72-210v-49c0-47-5-94-15-140-7-30 15-61 47-61 20 0 39 14 43 34 13 55 19 111 19 167v49c0 53 17 102 45 143 14 20 15 48-1 67z m206-22c-103 0-187-84-187-188v-49c0-70-9-139-27-207-8-28 13-56 42-56 18 0 35 12 39 30 21 76 31 154 31 233v49c0 56 46 102 102 102s102-46 102-102v-49c0-70-7-141-21-210-5-27 15-53 43-53 20 0 37 13 41 33 15 76 23 153 23 230v49c0 104-84 188-188 188z m47-188c0 26-21 47-47 47s-47-21-47-47v-49c0-117-21-233-63-342l-12-30c-9-24 3-51 27-60s51 2 61 27l11 30c46 120 70 247 70 375v49z" horiz-adv-x="1000" />

<glyph glyph-name="route-solid" unicode="&#xe8ba;" d="M1000 663c0-98-115-245-165-303-8-9-19-12-29-10h-181c-35 0-62-28-62-62s27-63 62-63h188c103 0 187-84 187-187s-84-188-187-188h-540c17 19 37 44 58 72 13 16 25 34 37 53h445c34 0 62 28 62 63s-28 62-62 62h-188c-103 0-187 84-187 188s84 187 187 187h78c-41 62-78 132-78 188 0 103 84 187 188 187s187-84 187-187z m-771-768c-8-9-14-16-20-22l-3-4-1 0c-12-9-28-8-39 4-49 53-166 191-166 290 0 103 84 187 188 187s187-84 187-187c0-59-41-131-85-192-21-28-42-54-60-75l-1-1z m21 268a63 63 0 1 1-125 0 63 63 0 1 1 125 0z m563 437a63 63 0 1 1 0 125 63 63 0 1 1 0-125z" horiz-adv-x="1000" />

<glyph glyph-name="reply-solid" unicode="&#xe8bb;" d="M400 782c23-10 38-32 38-57v-125h218c190 0 344-154 344-344 0-221-159-320-196-340-5-3-10-4-15-4-22 0-39 18-39 39 0 15 8 28 19 38 19 17 44 52 44 111 0 103-84 187-188 187h-187v-125c0-24-15-47-38-57s-48-6-67 11l-312 281c-13 12-21 29-21 47s8 34 21 46l312 282c19 16 45 20 67 10z" horiz-adv-x="1000" />

<glyph glyph-name="copyright-regular" unicode="&#xe8bc;" d="M500 756a406 406 0 1 0 0-812 406 406 0 1 0 0 812z m0-906a500 500 0 1 1 0 1000 500 500 0 1 1 0-1000z m-110 390c-61 60-61 159 0 220s159 61 220 0c19-18 48-18 67 0s18 48 0 67c-98 97-256 97-354 0s-98-256 0-354 256-98 354 0c18 18 18 48 0 66s-48 19-67 0c-61-61-160-61-220 0z" horiz-adv-x="1000" />

<glyph glyph-name="copyright-solid" unicode="&#xe8bd;" d="M500-150a500 500 0 1 1 0 1000 500 500 0 1 1 0-1000z m-110 390c60-61 159-61 220 0 19 18 48 18 67 0s18-49 0-67c-98-97-256-97-354 0s-98 256 0 354 256 97 354 0c18-19 18-48 0-66s-48-19-67 0c-61 61-160 61-220 0s-61-160 0-221z" horiz-adv-x="1000" />

<glyph glyph-name="user-plus-solid" unicode="&#xe8be;" d="M188 600a250 250 0 1 0 500 0 250 250 0 1 0-500 0z m-188-692c0 192 156 348 348 348h179c192 0 348-156 348-348 0-32-26-58-58-58h-759c-32 0-58 26-58 58z m984 333v125h-125c-26 0-46 21-46 47s20 46 46 46h125v125c0 26 21 47 47 47s47-21 47-47v-125h125c26 0 47-20 47-46s-21-47-47-47h-125v-125c0-26-21-47-47-47s-47 21-47 47z" horiz-adv-x="1250" />

<glyph glyph-name="file-contract-solid" unicode="&#xe8bf;" d="M125 850c-69 0-125-56-125-125v-750c0-69 56-125 125-125h500c69 0 125 56 125 125v563h-250c-35 0-62 27-62 62v250h-313z m375 0v-250h250l-250 250z m-344-125h125c17 0 32-14 32-31s-15-31-32-31h-125c-17 0-31 14-31 31s14 31 31 31z m0-125h125c17 0 32-14 32-31s-15-31-32-31h-125c-17 0-31 14-31 31s14 31 31 31z m106-496c-12-39-48-66-90-66h-16c-17 0-31 14-31 31s14 31 31 31h16c14 0 26 9 30 22l29 97c7 22 27 37 50 37s44-15 50-37l23-75c14 12 33 19 52 19 31 0 60-18 74-46l8-17h106c17 0 31-14 31-31s-14-31-31-31h-125c-12 0-23 6-28 17l-17 34c-4 7-10 11-18 11s-14-4-17-11l-17-34c-6-12-18-19-31-17s-23 10-27 22l-33 108-19-64z" horiz-adv-x="750" />

<glyph glyph-name="robot-solid" unicode="&#xe8c0;" d="M625 850c35 0 63-28 63-62v-125h234c78 0 141-63 141-141v-531c0-78-63-141-141-141h-594c-78 0-140 63-140 141v531c0 78 62 141 140 141h235v125c0 34 27 62 62 62z m-219-750c-17 0-31-14-31-31s14-31 31-31h63c17 0 31 14 31 31s-14 31-31 31h-63z m188 0c-17 0-31-14-31-31s14-31 31-31h62c17 0 32 14 32 31s-15 31-32 31h-62z m187 0c-17 0-31-14-31-31s14-31 31-31h63c17 0 31 14 31 31s-14 31-31 31h-63z m-265 250a78 78 0 1 1-157 0 78 78 0 1 1 157 0z m297-78a78 78 0 1 1 0 156 78 78 0 1 1 0-156z m-719 141h31v-375h-31c-52 0-94 42-94 93v188c0 52 42 94 94 94z m1062 0c52 0 94-42 94-94v-188c0-51-42-93-94-93h-31v375h31z" horiz-adv-x="1250" />

<glyph glyph-name="wrench-solid" unicode="&#xe8c1;" d="M688 225c172 0 312 140 312 313 0 29-4 58-12 86-6 21-32 26-48 10l-150-150c-5-6-13-9-22-9h-112c-17 0-31 14-31 31v112c0 9 3 17 9 22l150 150c16 16 11 42-10 48-28 8-57 12-86 12-173 0-313-140-313-312 0-38 7-74 19-107l-355-355c-25-24-39-58-39-93 0-74 59-133 133-133 35 0 69 14 93 39l355 355c33-13 69-19 107-19z m-532-172a47 47 0 1 0 0-94 47 47 0 1 0 0 94z" horiz-adv-x="1000" />

<glyph glyph-name="arrow-left-solid" unicode="&#xe8c2;" d="M18 394c-24-24-24-64 0-88l313-313c24-24 64-24 88 0s25 64 0 89l-206 206 600 0c34 0 62 27 62 62s-28 63-62 63l-599 0 205 205c25 25 25 64 0 89s-64 24-88 0l-313-313z" horiz-adv-x="875" />

<glyph glyph-name="cc-visa" unicode="&#xe8c3;" d="M918 398s15-72 18-88h-65c7 18 31 85 31 85 0 0 7 18 11 29l5-26z m207 296v-688c0-52-42-94-94-94h-937c-52 0-94 42-94 94v688c0 52 42 94 94 94h937c52 0 94-42 94-94z m-827-491l123 303h-83l-76-207-9 42-27 140c-5 19-19 25-36 25h-126l-1-6c30-8 58-19 82-33l70-264h83z m184 0l49 303h-78l-49-303h78z m274 99c0 35-21 61-66 83-28 13-45 23-45 37 1 13 15 26 45 26 26 1 45-5 59-11l7-4 11 66c-16 6-40 13-71 13-77 0-132-41-132-100-1-44 39-68 69-83 30-15 40-24 40-38 0-20-24-29-47-29-31 0-48 5-73 16l-11 5-11-68c19-9 53-16 88-17 82 0 136 41 137 104z m275-99l-63 303h-61c-18 0-33-5-41-25l-116-278h82s14 37 16 45h101c3-10 10-45 10-45h72z" horiz-adv-x="1125" />

<glyph glyph-name="closed-captioning-solid" unicode="&#xe8c4;" d="M0 663c0 68 56 125 125 125h875c69 0 125-57 125-125v-625c0-69-56-126-125-126h-875c-69 0-125 57-125 126v625z m391-219c27 0 52-12 70-31 17-20 46-21 66-4s21 47 4 66c-35 38-85 63-140 63-104 0-188-84-188-188s84-187 188-187c55 0 105 24 140 62 17 19 15 49-4 66s-49 16-66-3c-18-20-43-32-70-32-52 0-94 42-94 94s42 94 94 94z m281-94c0 52 42 94 94 94 27 0 52-12 70-31 17-20 46-21 66-4s21 47 4 66c-35 38-85 63-140 63-104 0-188-84-188-188s84-187 188-187c55 0 105 24 140 62 17 19 15 49-4 66s-49 16-66-3c-18-20-43-32-70-32-52 0-94 42-94 94z" horiz-adv-x="1125" />

<glyph glyph-name="closed-captioning-regular" unicode="&#xe8c5;" d="M1000 694c17 0 31-14 31-31v-625c0-18-14-32-31-32h-875c-17 0-31 14-31 32v625c0 17 14 31 31 31h875z m-875 94c-69 0-125-57-125-125v-625c0-69 56-126 125-126h875c69 0 125 57 125 126v625c0 68-56 125-125 125h-875z m266-344c27 0 52-12 70-31 17-20 46-21 66-4s21 47 4 66c-35 38-85 63-140 63-104 0-188-84-188-188s84-187 188-187c55 0 105 24 140 62 17 19 15 49-4 66s-49 16-66-3c-18-20-43-32-70-32-52 0-94 42-94 94s42 94 94 94z m281-94c0 52 42 94 94 94 27 0 52-12 70-31 17-20 46-21 66-4s21 47 4 66c-35 38-85 63-140 63-104 0-188-84-188-188s84-187 188-187c55 0 105 24 140 62 17 19 15 49-4 66s-49 16-66-3c-18-20-43-32-70-32-52 0-94 42-94 94z" horiz-adv-x="1125" />

<glyph glyph-name="arrow-up-right-from-square-solid" unicode="&#xe8c6;" d="M625 850c-35 0-62-28-62-62s27-63 62-63h162l-394-393c-24-25-24-64 0-89s64-24 89 0l393 394v-162c0-35 28-62 63-62s62 27 62 62v313c0 34-28 62-62 62h-313z m-469-62c-86 0-156-70-156-157v-625c0-86 70-156 156-156h625c87 0 157 70 157 156v219c0 35-28 63-63 63s-62-28-62-63v-219c0-17-15-31-32-31h-625c-17 0-31 14-31 31v625c0 17 14 32 31 32h219c35 0 63 27 63 62s-28 63-63 63h-219z" horiz-adv-x="1000" />

<glyph glyph-name="signal-solid" unicode="&#xe8c7;" d="M1125 850c35 0 63-28 63-62v-876c0-34-28-62-63-62s-62 28-62 62v876c0 34 27 62 62 62z m-250-187c35 0 63-28 63-63v-688c0-34-28-62-63-62s-62 28-62 62v688c0 35 27 63 62 63z m-187-250v-501c0-34-28-62-63-62s-62 28-62 62v501c0 34 27 62 62 62s63-28 63-62z m-313-125c35 0 63-28 63-63v-313c0-34-28-62-63-62s-62 28-62 62v313c0 35 27 63 62 63z m-187-250v-126c0-34-28-62-63-62s-62 28-62 62v126c0 34 27 62 62 62s63-28 63-62z" horiz-adv-x="1250" />

<glyph glyph-name="toggle-on-solid" unicode="&#xe8c8;" d="M375 725c-207 0-375-168-375-375s168-375 375-375h375c207 0 375 168 375 375s-168 375-375 375h-375z m375-187a188 188 0 1 0 0-375 188 188 0 1 0 0 375z" horiz-adv-x="1125" />

<glyph glyph-name="award-solid" unicode="&#xe8c9;" d="M340 839c21 15 49 15 71 0l34-23c12-7 26-11 40-10l41 2c26 2 50-12 62-35l18-37c7-13 17-23 29-29l38-19c23-12 37-36 35-62l-2-41c-1-14 3-28 10-39l24-35c14-22 14-50 0-71l-24-35c-7-12-11-26-10-40l2-41c2-26-12-50-35-62l-37-18c-13-7-23-17-29-29l-19-38c-12-23-36-37-62-35l-41 2c-14 1-28-3-39-10l-35-23c-22-15-50-15-71 0l-35 23c-12 7-26 11-40 10l-41-2c-26-2-50 12-62 35l-18 38c-7 12-17 22-29 28l-38 19c-23 12-37 36-35 62l2 41c1 14-3 28-10 40l-23 35c-15 21-15 49 0 71l23 34c7 12 11 26 10 40l-2 41c-2 26 12 50 35 62l38 18c12 7 22 17 28 30l19 37c12 23 36 37 62 35l41-2c14-1 28 3 40 10l35 23z m191-364a156 156 0 1 1-312 0 156 156 0 1 1 312 0z m-528-488l84 200c0 0 0 0 1 0l18-38c23-45 71-73 121-70l42 3c0 0 1 0 1-1l35-23c10-6 21-11 32-15l-74-174c-4-11-14-18-26-19s-22 4-29 14l-63 96-109-16c-11-1-22 3-30 12s-8 21-4 31z m484-118l-73 174c10 4 21 9 31 15l35 23c0 1 1 1 1 1l42-3c50-3 98 25 121 70l19 38c0 0 0 0 0 0l85-200c4-10 2-22-4-31s-19-14-30-12l-109 16-63-96c-6-10-18-15-29-14s-22 9-26 19z" horiz-adv-x="750" />

<glyph glyph-name="readme" unicode="&#xe8ca;" d="M1032 759h-273c-94 0-176-65-196-157-21 92-102 157-196 157h-273c-52 0-94-42-94-94v-480c0-51 42-93 94-93h175c200 0 259-48 288-147 1-5 10-5 11 0 29 99 89 147 288 147h175c52 0 94 42 94 93v480c0 52-42 94-93 94z m-559-518c0-4-3-7-7-7h-313c-4 0-7 3-7 7v45c0 3 3 6 7 6h313c4 0 7-2 7-6v-45z m0 119c0-4-3-7-7-7h-313c-4 0-7 3-7 7v45c0 3 3 6 7 6h313c4 0 7-3 7-6v-45z m0 119c0-4-3-7-7-7h-313c-4 0-7 3-7 7v44c0 4 3 7 7 7h313c4 0 7-3 7-7v-44z m506-238c0-4-3-7-7-7h-313c-3 0-7 3-7 7v45c0 4 3 7 7 7h314c3 0 6-3 6-7v-45z m0 119c0-4-3-7-7-7h-313c-3 0-7 3-7 7v45c0 3 3 7 7 7h314c3 0 6-3 6-7v-45z m0 119c0-4-3-7-7-7h-313c-3 0-7 3-7 7v44c0 4 3 7 7 7h314c3 0 6-3 6-7v-44z" horiz-adv-x="1125" />

<glyph glyph-name="slash-solid" unicode="&#xe8cb;" d="M10 832c16 20 46 24 66 8l1156-906c20-16 24-46 8-66s-45-24-66-8l-1156 906c-20 16-24 46-8 66z" horiz-adv-x="1250" />

<glyph glyph-name="wallet-solid" unicode="&#xe8cc;" d="M125 788c-69 0-125-57-125-125v-625c0-69 56-126 125-126h750c69 0 125 57 125 126v437c0 69-56 125-125 125h-719c-17 0-31 14-31 31s14 32 31 32h719c35 0 63 27 63 62s-28 63-63 63h-750z m688-469a63 63 0 1 0 0-125 63 63 0 1 0 0 125z" horiz-adv-x="1000" />

<glyph glyph-name="file-import-solid" unicode="&#xe8cd;" d="M250 725c0 69 56 125 125 125h313v-250c0-35 27-62 62-62h250v-563c0-69-56-125-125-125h-500c-69 0-125 56-125 125v219h340l-76-76c-18-19-18-48 0-67s48-18 66 0l156 157c19 18 19 48 0 66l-156 156c-18 18-48 18-66 0s-18-48 0-66l76-76h-340v437z m0-437v-94h-203c-26 0-47 21-47 47s21 47 47 47h203z m750 312h-250v250l250-250z" horiz-adv-x="1000" />

<glyph glyph-name="caret-down-solid" unicode="&#xe8ce;" d="M268 118c25-24 64-24 89 0l250 250c18 18 23 45 13 69s-32 38-57 38l-500 0c-26 0-48-15-58-39s-5-50 13-68l250-250z" horiz-adv-x="625" />

<glyph glyph-name="star-of-life-solid" unicode="&#xe8cf;" d="M406 788c0 34 28 62 63 62h62c35 0 63-28 63-62v-276l238 138c30 17 68 7 85-23l32-54c17-30 7-68-23-85l-238-138 238-137c30-18 40-56 23-86l-32-54c-17-30-55-40-85-23l-238 138v-276c0-34-28-62-63-62h-62c-35 0-63 28-63 62v276l-238-138c-30-17-68-7-85 23l-32 54c-17 30-7 68 23 85l239 138-239 138c-30 17-40 55-23 85l32 54c17 30 55 40 85 23l238-137v275z" horiz-adv-x="1000" />

<glyph glyph-name="language-solid" unicode="&#xe8d0;" d="M0 600c0 69 56 125 125 125h375 94 31 500c69 0 125-56 125-125v-500c0-69-56-125-125-125h-500-31-94-375c-69 0-125 56-125 125v500z m625 0v-500h500v500h-500z m-277-94c-6 15-20 24-35 24s-30-9-36-24l-125-281c-9-19 0-43 20-51s43 0 51 20l18 39h143l18-39c9-20 32-29 51-20s29 32 20 51l-125 281z m-35-111l37-84h-75l38 84z m562 135c22 0 39-18 39-39v-8h86 31c22 0 39-18 39-39s-17-39-39-39h-4l-3-9c-17-48-43-91-77-128 2-1 3-2 5-3l37-22c19-11 25-35 14-53s-36-25-54-14l-37 22c-9 5-17 11-25 17-21-15-43-28-67-38l-7-3c-20-9-43 0-51 20s0 42 19 51l8 3c12 6 24 12 36 19l-24 24c-15 15-15 40 0 56s40 15 55 0l29-29 1-1c24 26 44 55 58 88h-69-141c-21 0-39 18-39 39s18 39 39 39h102v8c0 21 18 39 39 39z" horiz-adv-x="1250" />

<glyph glyph-name="pause-solid" unicode="&#xe8d1;" d="M94 725c-52 0-94-42-94-94v-562c0-52 42-94 94-94h62c52 0 94 42 94 94v562c0 52-42 94-94 94h-62z m375 0c-52 0-94-42-94-94v-562c0-52 42-94 94-94h62c52 0 94 42 94 94v562c0 52-42 94-94 94h-62z" horiz-adv-x="625" />

<glyph glyph-name="calendar-week-solid" unicode="&#xe8d2;" d="M250 850c35 0 63-28 63-62v-63h250v63c0 34 27 62 62 62s63-28 63-62v-63h93c52 0 94-42 94-94v-93h-875v93c0 52 42 94 94 94h94v63c0 34 27 62 62 62z m-250-375h875v-531c0-52-42-94-94-94h-687c-52 0-94 42-94 94v531z m156-125c-17 0-31-14-31-31v-125c0-17 14-31 31-31h563c17 0 31 14 31 31v125c0 17-14 31-31 31h-563z" horiz-adv-x="875" />

<glyph glyph-name="moon-regular" unicode="&#xe8d3;" d="M283 657c-41-66-65-145-65-229 0-191 123-354 294-413-24-6-50-9-76-9-189 0-342 154-342 344 0 135 77 251 189 307z m121 129c-226-16-404-205-404-436 0-242 195-438 437-438 93 0 179 30 250 80 4 2 8 5 11 8 9 7 18 14 27 22 6 5 11 9 16 14 9 10 12 25 6 37s-20 19-33 16c-8-1-15-2-22-3-10-1-20-2-30-2-2 0-5 0-7 0 0 0-1 0-1 0-189 1-342 154-342 344 0 107 49 203 125 266 2 1 4 3 6 5 8 6 16 12 25 17 6 4 12 8 19 12 11 6 18 20 15 33s-15 24-28 25c-7 0-14 1-21 1-5 0-11 0-16 0-7 0-13 0-19 0-5 0-9-1-14-1z" horiz-adv-x="750" />

<glyph glyph-name="moon-solid" unicode="&#xe8d4;" d="M437 788c-242 0-437-196-437-438s195-438 437-438c118 0 225 48 304 124 10 10 12 25 6 37s-20 19-33 17c-19-4-39-6-59-6-189 0-343 154-343 344 0 129 70 241 175 300 11 6 18 20 15 33s-15 24-28 25c-13 1-25 1-37 1z" horiz-adv-x="750" />

<glyph glyph-name="desktop-solid" unicode="&#xe8d5;" d="M125 850c-69 0-125-56-125-125v-562c0-69 56-125 125-125h344l-21-63h-135c-35 0-63-28-63-63s28-62 63-62h500c34 0 62 28 62 62s-28 63-62 63h-136l-21 63h344c69 0 125 56 125 125v562c0 69-56 125-125 125h-875z m875-125v-437h-875v437h875z" horiz-adv-x="1125" />

<glyph glyph-name="icons-solid" unicode="&#xe8d6;" d="M977 836c15-12 23-30 23-48v-282c0-51-56-93-125-93s-125 42-125 93 56 94 125 94v111l-187-37v-230c0-52-57-94-125-94s-125 42-125 94 56 94 125 94v187c0 30 21 56 50 61l312 63c19 4 38-1 52-13z m-831-580l23 35c12 17 31 28 52 28h120c21 0 41-11 52-28l24-35h52c52 0 94-42 94-93v-219c0-52-42-94-94-94h-375c-52 0-94 42-94 94v219c0 51 42 93 94 93h52z m229-203a94 94 0 1 1-187 0 94 94 0 1 1 187 0z m560 253l-75-175h109c13 0 24-8 29-20s1-26-8-35l-250-218c-11-10-28-11-39-2s-16 24-11 37l75 176h-109c-13 0-24 8-29 20s-1 26 9 35l250 218c11 10 27 11 38 2s16-24 11-37z m-662 116c-13-13-33-13-45 0l-189 195c-55 57-52 150 10 203 52 46 133 37 182-13l20-20 18 20c49 50 129 59 184 13 60-53 63-146 8-203l-188-195z" horiz-adv-x="1000" />

<glyph glyph-name="sitemap-solid" unicode="&#xe8d7;" d="M406 694c0 52 42 94 94 94h125c52 0 94-42 94-94v-125c0-52-42-94-94-94h-16v-78h297c61 0 110-49 110-109v-63h15c52 0 94-42 94-94v-125c0-52-42-94-94-94h-125c-51 0-93 42-93 94v125c0 52 42 94 93 94h16v63c0 8-7 15-16 15h-297v-78h16c52 0 94-42 94-94v-125c0-52-42-94-94-94h-125c-52 0-94 42-94 94v125c0 52 42 94 94 94h16v78h-297c-9 0-16-7-16-15v-63h16c52 0 94-42 94-94v-125c0-52-42-94-94-94h-125c-52 0-94 42-94 94v125c0 52 42 94 94 94h15v63c0 60 49 109 110 109h297v78h-16c-52 0-94 42-94 94v125z" horiz-adv-x="1125" />

<glyph glyph-name="power-off-solid" unicode="&#xe8d8;" d="M563 788c0 34-28 62-63 62s-62-28-62-62v-438c0-35 27-62 62-62s63 27 63 62v438z m-283-173c27 22 30 61 8 88s-61 30-88 8c-103-86-169-216-169-361 0-259 210-469 469-469s469 210 469 469c0 145-66 275-169 361-27 22-66 18-88-8s-19-66 8-88c76-64 124-159 124-265 0-190-154-344-344-344s-344 154-344 344c0 106 48 201 124 265z" horiz-adv-x="1000" />

<glyph glyph-name="restroom-solid" unicode="&#xe8d9;" d="M156 756a94 94 0 1 0 188 0 94 94 0 1 0-188 0z m78-593v-251c0-34-28-62-62-62s-63 28-63 62v303c-15-18-41-26-65-18-33 10-51 45-41 78l60 193c25 79 97 132 179 132h16c82 0 154-53 179-132l60-193c10-33-8-68-41-78-24-8-50 0-65 18v-303c0-34-28-62-63-62s-62 28-62 62v251h-32z m391 687c26 0 47-21 47-47v-906c0-26-21-47-47-47s-47 21-47 47v906c0 26 21 47 47 47z m281-94a94 94 0 1 0 188 0 94 94 0 1 0-188 0z m-47-844v188h-34c-22 0-37 21-30 41l18 53c-7 0-13 1-19 3-33 10-51 45-41 78l58 186c26 83 102 139 189 139s163-56 189-139l58-186c10-33-8-68-41-78-6-2-12-3-18-3l17-53c7-20-8-41-30-41h-34v-188c0-34-28-62-63-62s-62 28-62 62v188h-32v-188c0-34-28-62-62-62s-63 28-63 62z" horiz-adv-x="1250" />

<glyph glyph-name="laptop-solid" unicode="&#xe8da;" d="M250 788c-69 0-125-57-125-125v-500h125v500h750v-500h125v500c0 68-56 125-125 125h-750z m-212-688c-21 0-38-17-38-37 0-83 67-151 150-151h950c83 0 150 68 150 151 0 20-17 37-37 37h-1175z" horiz-adv-x="1250" />

<glyph glyph-name="signature-solid" unicode="&#xe8db;" d="M375 600c0 35 28 63 63 63s62-28 62-63v-15c0-54-5-108-14-161l-165-50c-79-24-133-97-133-179v-141c0-78 63-142 141-142 51 0 98 28 123 72l27 47c53 92 91 191 114 294l185 56-25-74c-6-19-3-40 9-56s31-26 51-26h250c34 0 62 28 62 63s-28 62-62 62h-164l35 105c8 22 2 47-14 64s-40 23-63 16l-239-72c5 41 7 81 7 122v15c0 104-84 188-187 188s-188-84-188-188v-62c0-35 28-63 63-63s62 28 62 63v62z m-18-346l96 29c-21-66-48-130-82-190l-28-47c-3-5-8-9-14-9-9 0-17 8-17 17v141c0 27 19 52 45 60z m-310-123c-26 0-47-21-47-47s21-46 47-46h79c-1 5-1 10-1 16v77h-78z m1156-93c26 0 47 20 47 46s-21 47-47 47h-605c-14-32-28-63-44-93h649z" horiz-adv-x="1250" />

<glyph glyph-name="registered-regular" unicode="&#xe8dc;" d="M500 756a406 406 0 1 0 0-812 406 406 0 1 0 0 812z m0-906a500 500 0 1 1 0 1000 500 500 0 1 1 0-1000z m-187 703v-219-187c0-26 20-47 46-47s47 21 47 47v141h119l73-160c11-24 38-34 62-24s34 39 23 62l-66 147c42 28 71 76 71 131 0 86-70 156-157 156h-172c-26 0-46-21-46-47z m93-172v125h125c35 0 63-28 63-62s-28-63-63-63h-125z" horiz-adv-x="1000" />

<glyph glyph-name="registered-solid" unicode="&#xe8dd;" d="M500-150a500 500 0 1 1 0 1000 500 500 0 1 1 0-1000z m-187 703c0 26 20 47 46 47h172c87 0 157-70 157-156 0-55-29-103-71-131l66-147c11-23 0-51-23-62s-51 0-62 23l-73 161h-119v-141c0-26-21-47-47-47s-46 21-46 47v187 219z m93-172h125c35 0 63 28 63 63s-28 62-63 62h-125v-125z" horiz-adv-x="1000" />

<glyph glyph-name="water-solid" unicode="&#xe8de;" d="M526 714c22 15 51 15 73 0 44-31 97-51 151-51 53 0 108 21 151 51l0 0c23 16 55 15 77-4 28-23 63-41 99-49 33-8 54-41 46-75s-41-55-75-47c-48 11-87 33-113 49-57-30-120-50-185-50-62 0-118 19-157 36-11 6-22 11-30 16-9-5-19-10-31-16-39-17-95-36-157-36-64 0-128 20-185 50-26-16-65-38-113-49-34-8-67 13-75 47s13 67 46 75c36 8 71 26 99 49 22 19 53 20 77 4l0 0c43-30 99-51 151-51 54 0 107 20 151 51z m73-563c44-30 97-51 151-51 53 0 108 21 151 51l0 0c23 17 55 15 77-3 28-24 63-41 99-50 33-7 54-41 46-75s-41-54-75-46c-48 11-87 32-113 49-57-31-120-51-185-51-62 0-118 19-157 37-11 5-22 10-30 15-9-5-19-10-31-15-39-18-95-37-157-37-64 0-128 20-185 50-26-16-65-37-113-48-34-8-67 13-75 46s13 67 46 75c36 8 71 26 99 50 22 18 54 19 77 3l0 0c43-30 99-51 151-51 54 0 107 21 151 51 22 15 51 15 73 0z m0 281c44-30 97-51 151-51 53 0 108 21 151 51l0 0c23 17 55 16 77-3 28-23 63-41 99-49 33-8 54-42 46-75s-41-55-75-47c-48 11-87 32-113 49-57-31-120-51-185-51-62 0-118 20-157 37-11 5-22 11-30 15-9-4-19-10-31-15-39-17-95-37-157-37-64 0-128 20-185 51-26-17-65-38-113-49-34-8-67 13-75 47s13 67 46 75c36 8 71 26 99 49 22 18 54 19 77 3l0 0c43-30 99-51 151-51 54 0 107 21 151 51 22 16 51 16 73 0z" horiz-adv-x="1125" />

<glyph glyph-name="exclamation-solid" unicode="&#xe8df;" d="M125 725c0 35-28 63-62 63s-63-28-63-63v-500c0-35 28-62 63-62s62 27 62 62v500z m-62-813a78 78 0 1 1 0 157 78 78 0 1 1 0-157z" horiz-adv-x="125" />

<glyph glyph-name="file-invoice-solid" unicode="&#xe8e0;" d="M125 850c-69 0-125-56-125-125v-750c0-69 56-125 125-125h500c69 0 125 56 125 125v563h-250c-35 0-62 27-62 62v250h-313z m375 0v-250h250l-250 250z m-344-125h125c17 0 32-14 32-31s-15-31-32-31h-125c-17 0-31 14-31 31s14 31 31 31z m0-125h125c17 0 32-14 32-31s-15-31-32-31h-125c-17 0-31 14-31 31s14 31 31 31z m32-187h375c34 0 62-28 62-63v-125c0-35-28-62-62-62h-375c-35 0-63 27-63 62v125c0 35 28 63 63 63z m0-63v-125h375v125h-375z m281-312h125c17 0 31-15 31-32s-14-31-31-31h-125c-17 0-31 14-31 31s14 32 31 32z" horiz-adv-x="750" />

<glyph glyph-name="arrow-down-solid" unicode="&#xe8e1;" d="M331-69c24-25 64-25 88 0l313 312c24 25 24 64 0 89s-64 24-89 0l-205-206 0 599c0 35-28 63-63 63s-62-28-62-63l0-599-206 206c-25 24-64 24-89 0s-24-64 0-89l313-312z" horiz-adv-x="750" />

<glyph glyph-name="video-slash-solid" unicode="&#xe8e2;" d="M76 840c-20 16-50 12-66-8s-12-50 8-66l1156-906c21-16 50-12 66 8s12 50-8 66l-169 132 27-18c19-13 44-14 65-3s33 32 33 55v500c0 23-13 44-33 55s-45 10-65-3l-187-125-28-19v-33-250-11l-62 49v337c0 69-57 125-125 125h-465l-147 115z m719-804l-732 577c0-4 0-9 0-13v-500c0-69 56-125 125-125h500c45 0 85 25 107 61z" horiz-adv-x="1250" />

<glyph glyph-name="user-nurse-solid" unicode="&#xe8e3;" d="M188 600v113c0 26 16 49 40 59l188 70c14 5 29 5 44 0l187-70c25-10 41-33 41-59v-113h-1c1-5 1-10 1-16v-78c0-138-112-250-250-250s-250 112-250 250v78c0 6 0 11 0 16h0z m93-94c0-86 70-156 157-156s156 70 156 156v32h-313v-32z m-62-296c20 7 42-1 57-17l139-147c12-13 33-13 45 0l139 147c15 16 37 24 57 17 127-41 219-160 219-300 0-33-27-60-60-60h-755c-33 0-60 27-60 60 0 140 92 259 219 300z m187 546v-31h-31c-9 0-16-7-16-16v-31c0-8 7-15 16-15h31v-32c0-8 7-15 16-15h31c9 0 16 7 16 15v32h31c9 0 16 7 16 15v31c0 9-7 16-16 16h-31v31c0 9-7 16-16 16h-31c-9 0-16-7-16-16z" horiz-adv-x="875" />

<glyph glyph-name="server-solid" unicode="&#xe8e4;" d="M125 788c-69 0-125-57-125-125v-125c0-69 56-125 125-125h750c69 0 125 56 125 125v125c0 68-56 125-125 125h-750z m547-141a47 47 0 1 0 0-94 47 47 0 1 0 0 94z m94-47a47 47 0 1 0 93 0 47 47 0 1 0-93 0z m-641-312c-69 0-125-57-125-125v-125c0-69 56-126 125-126h750c69 0 125 57 125 126v125c0 68-56 125-125 125h-750z m547-141a47 47 0 1 0 0-94 47 47 0 1 0 0 94z m109-47a47 47 0 1 0 94 0 47 47 0 1 0-94 0z" horiz-adv-x="1000" />

<glyph glyph-name="tags-solid" unicode="&#xe8e5;" d="M674 774l249-253c103-103 103-270 0-373l-218-222c-18-18-48-18-66 0s-19 48-1 66l219 222c66 67 66 174 0 241l-250 253c-18 18-18 48 1 66s48 18 66-1z m-674-372v292c0 52 42 94 94 94h292c33 0 65-14 88-37l328-328c49-49 49-128 0-177l-260-261c-49-49-128-49-177 0l-328 329c-24 23-37 55-37 88z m281 167a63 63 0 1 1-125 0 63 63 0 1 1 125 0z" horiz-adv-x="1000" />

</font>
</defs>
</svg>
